<svg xmlns="http://www.w3.org/2000/svg" id="svg0.05513830768173089" viewBox="0 0 1024 1024"><path d="M0 0 C337.92 0 675.84 0 1024 0 C1024 337.92 1024 675.84 1024 1024 C686.08 1024 348.16 1024 0 1024 C0 686.08 0 348.16 0 0 Z " transform="translate(0,0)" style="fill: #4A5761;"/><path d="M0 0 C1.29923904 -0.00101212 1.29923904 -0.00101212 2.62472534 -0.00204468 C16.37108673 0.01492868 29.72002285 0.63809485 43.25 3.25 C44.14315918 3.41628906 45.03631836 3.58257812 45.95654297 3.75390625 C103.67905859 14.78954386 158.45833189 49.67364847 194.25 96.25 C195.06855469 97.27480469 195.88710938 98.29960937 196.73046875 99.35546875 C202.51488008 106.63889245 207.59280917 114.18726602 212.25 122.25 C212.62543945 122.89936523 213.00087891 123.54873047 213.38769531 124.21777344 C214.5781295 126.28702527 215.76020651 128.36074546 216.9375 130.4375 C217.47225952 131.3807312 217.47225952 131.3807312 218.01782227 132.34301758 C222.9440012 141.14456353 227.13406727 150.08324231 230.75 159.5 C231.29720703 160.90185547 231.29720703 160.90185547 231.85546875 162.33203125 C233.00551602 165.29794263 234.12946559 168.27282228 235.25 171.25 C235.66741455 172.32950928 236.0848291 173.40901855 236.51489258 174.52124023 C239.88120033 183.49529134 242.07827523 192.43926425 243.9375 201.8125 C244.16253708 202.92975464 244.16253708 202.92975464 244.39212036 204.06958008 C246.80016329 216.08490995 248.79980308 227.98099712 249.25 240.25 C249.28706055 241.23806641 249.32412109 242.22613281 249.36230469 243.24414062 C251.41793293 309.47200484 225.18715813 371.20277264 180.265625 419.0859375 C177.64253285 421.85746755 174.95493693 424.55815147 172.25 427.25 C171.445625 428.08917969 170.64125 428.92835938 169.8125 429.79296875 C163.14241445 436.67657838 156.03532147 442.65456493 148.25 448.25 C147.61900391 448.70407227 146.98800781 449.15814453 146.33789062 449.62597656 C137.86639394 455.67644828 129.26047631 461.27059399 120.10546875 466.2421875 C118.81095865 466.94531088 117.51951564 467.65409773 116.23046875 468.3671875 C106.45913595 473.76951992 96.69629784 478.30800082 86.25 482.25 C84.73986328 482.87648438 84.73986328 482.87648438 83.19921875 483.515625 C28.91225785 505.76553375 -36.98634324 503.14193801 -90.74902344 480.6496582 C-118.02836209 468.81637247 -142.26706596 453.3204801 -163.91015625 432.90234375 C-166.1024807 430.85476699 -168.30963724 428.90282596 -170.625 427 C-173.68854843 424.41583323 -176.24499468 421.52798641 -178.83203125 418.47265625 C-180.1473311 416.94840856 -181.50159637 415.45718263 -182.88671875 413.99609375 C-208.24685202 387.21076291 -226.82845405 353.36240964 -237.75 318.25 C-238.13542969 317.03570313 -238.52085937 315.82140625 -238.91796875 314.5703125 C-240.86340265 308.11534792 -242.42784006 301.58172369 -243.875 295 C-244.03379639 294.29866943 -244.19259277 293.59733887 -244.35620117 292.87475586 C-247.47116319 278.08974678 -248.13188475 263.12121799 -248.0625 248.0625 C-248.06034485 247.21282654 -248.0581897 246.36315308 -248.05596924 245.48773193 C-247.9294832 214.27785016 -242.60485499 182.05232838 -228.92578125 153.70703125 C-227.43622337 150.59430067 -226.1011389 147.42517642 -224.75 144.25 C-213.94766999 118.97200358 -197.90465215 95.92749736 -178.75 76.25 C-178.04536621 75.51958496 -177.34073242 74.78916992 -176.61474609 74.03662109 C-167.51593204 64.63570904 -158.61770555 55.60408646 -147.75 48.25 C-146.98558594 47.69054687 -146.22117187 47.13109375 -145.43359375 46.5546875 C-114.23507357 23.85525657 -78.82183154 9.77960161 -40.9375 3.0625 C-39.99471191 2.89532471 -39.05192383 2.72814941 -38.08056641 2.5559082 C-25.37889353 0.39669056 -12.85391317 0.00901643 0 0 Z " transform="translate(510.75,272.75)" style="fill: #192029;"/><path d="M0 0 C8.74851235 0.45669233 18.41742091 4.09652155 24.5 10.5625 C33.85981257 24.61292802 36.46424005 45.5086351 40.99682617 61.72924805 C42.75560148 68.01683899 44.54137293 74.29223451 46.43847656 80.53979492 C47.38528212 83.72458656 48.28301346 86.92183087 49.1796875 90.12109375 C49.52193359 91.33861328 49.86417969 92.55613281 50.21679688 93.81054688 C50.92601782 96.33821558 51.63167619 98.86688626 52.33398438 101.39648438 C52.84541992 103.20922852 52.84541992 103.20922852 53.3671875 105.05859375 C53.67277588 106.15228271 53.97836426 107.24597168 54.29321289 108.37280273 C55.12829298 111.29316056 55.12829298 111.29316056 57.20703125 114.125 C58.12840982 111.8768363 59.04410365 109.62659547 59.95703125 107.375 C60.33601563 106.45267578 60.33601563 106.45267578 60.72265625 105.51171875 C62.74917433 100.49608649 64.45901715 95.40313754 66.14941406 90.265625 C67.8786013 85.13075322 69.79116233 80.06757138 71.70703125 75 C72.08472656 73.99324219 72.46242188 72.98648438 72.8515625 71.94921875 C74.95350593 66.3657058 77.11445174 60.81060854 79.34521484 55.27734375 C80.03778345 53.54768799 80.70641038 51.80845503 81.3671875 50.06640625 C81.81384766 48.88884766 81.81384766 48.88884766 82.26953125 47.6875 C82.56988281 46.88441406 82.87023437 46.08132813 83.1796875 45.25390625 C84.26786061 42.99894676 85.27322635 41.70194315 87.20703125 40.125 C90.77143543 38.93686527 93.76177907 38.88312047 97.51953125 38.8125 C99.46279297 38.75642578 99.46279297 38.75642578 101.4453125 38.69921875 C105.87471055 39.20057325 107.87404492 40.18925913 111.20703125 43.125 C112.78125 46.04296875 112.78125 46.04296875 113.89453125 49.3125 C114.26964844 50.37855469 114.64476562 51.44460938 115.03125 52.54296875 C115.63510687 54.38262571 116.23817722 56.22258418 116.8269043 58.06713867 C119.13350624 65.18265619 121.88957882 72.11057853 124.64453125 79.0625 C125.36092773 80.87911133 125.36092773 80.87911133 126.09179688 82.73242188 C130.73373104 94.49501886 130.73373104 94.49501886 135.47265625 106.21875 C135.7975 107.0128125 136.12234375 107.806875 136.45703125 108.625 C136.7921875 109.4396875 137.12734375 110.254375 137.47265625 111.09375 C138.20703125 113.125 138.20703125 113.125 138.20703125 115.125 C138.86703125 115.125 139.52703125 115.125 140.20703125 115.125 C140.31917969 114.34769531 140.43132812 113.57039062 140.546875 112.76953125 C141.40102228 108.05403179 142.56465004 103.44928846 143.76953125 98.8125 C144.16325928 97.29668335 144.16325928 97.29668335 144.56494141 95.75024414 C146.50435449 88.43776761 148.71833705 81.24769157 151.08203125 74.0625 C154.17365128 64.66049538 156.88506074 55.19507289 159.39453125 45.625 C159.728479 44.35333984 160.06242676 43.08167969 160.40649414 41.77148438 C161.04677832 39.33090926 161.6869992 36.89031754 162.32714844 34.44970703 C163.51175751 29.97356765 164.73767859 25.51172405 166.01953125 21.0625 C166.37660156 19.81339844 166.73367188 18.56429688 167.1015625 17.27734375 C168.52346415 13.22266307 169.74002895 10.1424805 173.3359375 7.6484375 C181.42985684 3.82883512 189.13010063 0.53302626 198.20703125 1.125 C197.57140341 5.3545835 196.64948429 9.3759016 195.46484375 13.484375 C194.94857422 15.28261719 194.94857422 15.28261719 194.421875 17.1171875 C194.06222656 18.35726563 193.70257812 19.59734375 193.33203125 20.875 C192.98011719 22.09960938 192.62820313 23.32421875 192.265625 24.5859375 C190.75231018 29.84034656 189.22529544 35.08968428 187.64453125 40.32421875 C186.05577766 45.59320884 184.56215503 50.88709794 183.08203125 56.1875 C182.78562744 57.24678711 182.48922363 58.30607422 182.18383789 59.39746094 C179.83002683 67.83462375 177.52327329 76.28420429 175.22576904 84.73681641 C171.64917874 97.89392146 168.06114322 111.04582997 164.20703125 124.125 C163.98031738 124.8969873 163.75360352 125.66897461 163.52001953 126.46435547 C162.86250831 128.68750369 162.19369686 130.90685191 161.51953125 133.125 C161.14441406 134.3625 160.76929688 135.6 160.3828125 136.875 C158.6659592 141.62058787 156.74503385 145.49254727 152.3359375 148.2109375 C145.19294872 151.27783543 135.95242757 153.27246612 128.20703125 152.125 C124.90927443 148.71608284 123.50839276 145.63638656 122.20703125 141.125 C119.73429065 133.08990222 116.51095769 125.37271892 113.26953125 117.625 C113.00400452 116.98932098 112.73847778 116.35364197 112.46490479 115.69869995 C111.17155644 112.60291935 109.87615099 109.5080112 108.57958984 106.41357422 C106.88359729 102.35007019 105.21761463 98.27565327 103.58203125 94.1875 C103.15664063 93.12660156 102.73125 92.06570313 102.29296875 90.97265625 C101.17776637 88.04825863 100.17402165 85.10137871 99.20703125 82.125 C96.10454346 82.79490019 96.10454346 82.79490019 95.01367188 85.14331055 C94.63404297 86.02801025 94.25441406 86.91270996 93.86328125 87.82421875 C93.43273437 88.82243652 93.0021875 89.8206543 92.55859375 90.84912109 C90.21739089 96.52366228 87.93719661 102.21840649 85.70703125 107.9375 C85.24683594 109.10603516 84.78664063 110.27457031 84.3125 111.47851562 C81.96923668 117.46208803 79.71899595 123.46270608 77.59375 129.52734375 C75.83372424 134.50016466 73.92500705 139.1829708 71.51953125 143.875 C70.93816406 145.02484375 70.35679687 146.1746875 69.7578125 147.359375 C68.20703125 150.125 68.20703125 150.125 66.20703125 152.125 C58.44728578 153.02035525 51.54045125 150.44448837 44.20703125 148.125 C43.44261719 147.96773437 42.67820312 147.81046875 41.890625 147.6484375 C40.08203125 147.1875 40.08203125 147.1875 37.20703125 145.125 C36.21826172 142.66210938 36.21826172 142.66210938 35.32421875 139.53125 C34.98342285 138.35763916 34.64262695 137.18402832 34.29150391 135.97485352 C33.93362793 134.70440186 33.57575195 133.4339502 33.20703125 132.125 C32.8323011 130.82642834 32.45647292 129.52817307 32.07958984 128.23022461 C30.85803651 124.01161632 29.65680394 119.78734506 28.45703125 115.5625 C27.79687098 113.24223898 27.13637743 110.92207299 26.4758606 108.60191345 C26.03157451 107.04114142 25.58746193 105.48031999 25.14352417 103.91944885 C23.74464329 99.00338823 22.33547688 94.0904068 20.91796875 89.1796875 C15.21890677 69.40759182 15.21890677 69.40759182 13.14453125 60.8125 C11.61523282 54.47972238 9.76196282 48.28421453 7.83203125 42.0625 C5.31529794 33.93997575 2.9774008 25.79125148 0.83203125 17.5625 C0.58146973 16.60529053 0.3309082 15.64808105 0.07275391 14.66186523 C-2.30696359 5.40878832 -2.30696359 5.40878832 -2.79296875 1.125 C-1.79296875 0.125 -1.79296875 0.125 0 0 Z " transform="translate(405.79296875,420.875)" style="fill: #F6403D;"/><path d="M0 0 C0.66 0 1.32 0 2 0 C6.84643371 11.19900074 10.88940591 22.08370392 13.2109375 34.08203125 C13.92623538 37.92853075 13.92623538 37.92853075 14.98071289 41.33227539 C18.59588037 54.34081695 18.43678621 67.97876332 18.4375 81.375 C18.43956451 82.34267303 18.44162903 83.31034607 18.4437561 84.30734253 C18.43785112 99.75620525 17.1984768 114.06302743 13 129 C12.75918701 129.90943359 12.51837402 130.81886719 12.27026367 131.75585938 C3.85751557 163.41573388 -10.73320507 191.13243727 -32 216 C-32.62132812 216.75152344 -33.24265625 217.50304687 -33.8828125 218.27734375 C-42.46661528 228.47869731 -52.24899447 238.1209414 -63 246 C-63.59087402 246.44021484 -64.18174805 246.88042969 -64.79052734 247.33398438 C-79.87365976 258.52770861 -95.88570379 267.38461236 -112.9921875 275.09277344 C-114.38239968 275.72093838 -115.76754349 276.36039656 -117.1484375 277.00878906 C-122.60733009 279.5303003 -128.08540967 281.39111139 -133.875 283 C-134.78121094 283.25418701 -135.68742188 283.50837402 -136.62109375 283.77026367 C-163.40344969 291.13867088 -200.29225678 297.83647509 -227 287 C-228.33984375 284.50390625 -228.33984375 284.50390625 -228.9375 281.5625 C-229.26041016 280.11037109 -229.26041016 280.11037109 -229.58984375 278.62890625 C-230 276 -230 276 -230 273 C-229.46149414 273.09087891 -228.92298828 273.18175781 -228.36816406 273.27539062 C-202.98992818 277.38394687 -174.9645162 279.17117438 -150 272 C-149.17161621 271.77505859 -148.34323242 271.55011719 -147.48974609 271.31835938 C-136.35677641 268.28608176 -125.57310495 264.63708533 -115 260 C-114.33967773 259.71431152 -113.67935547 259.42862305 -112.99902344 259.13427734 C-91.61548102 249.79474525 -72.91495943 237.03424179 -56 221 C-55.50677246 220.53932129 -55.01354492 220.07864258 -54.50537109 219.60400391 C-41.84050129 207.7104796 -31.52158216 194.15119547 -23 179 C-22.5786377 178.25685547 -22.15727539 177.51371094 -21.72314453 176.74804688 C-12.06081871 159.52941868 -4.5230935 141.48785493 -0.453125 122.10839844 C-0.13840229 120.64398823 0.1964185 119.18381098 0.546875 117.72753906 C8.74484314 83.59241835 4.0081785 47.92754716 -7 15 C-7.70888279 11.45558604 -7.43046246 9.68446903 -5.50390625 6.62109375 C-3.75416656 4.29659549 -2.0392834 2.07619351 0 0 Z " transform="translate(702,440)" style="fill: #5F6E76;"/><path d="M0 0 C0 5.28 0 10.56 0 16 C-1.21171875 16.03738281 -2.4234375 16.07476562 -3.671875 16.11328125 C-50.41848442 17.82421281 -98.41952718 34.63636831 -131.75 68.6875 C-132.34296875 69.33074219 -132.9359375 69.97398437 -133.546875 70.63671875 C-135 72 -135 72 -137 72 C-137.26167969 72.59554687 -137.52335937 73.19109375 -137.79296875 73.8046875 C-139.07471136 76.13588279 -140.33095056 77.36833733 -142.3125 79.125 C-166.13046826 102.42424663 -181.44100005 137.55889291 -187.578125 169.85693359 C-187.97613721 171.87878033 -188.43921852 173.88750371 -188.90625 175.89453125 C-193.57137558 197.25492907 -192.95321694 222.76817356 -188 244 C-187.79068848 244.9384375 -187.58137695 245.876875 -187.36572266 246.84375 C-184.73420957 258.52446486 -181.66681556 269.83689986 -177.19921875 280.953125 C-176.80347656 281.95859375 -176.40773438 282.9640625 -176 284 C-175.67773438 284.6909375 -175.35546875 285.381875 -175.0234375 286.09375 C-175 288 -175 288 -177.08984375 290.578125 C-178.02957031 291.45984375 -178.96929687 292.3415625 -179.9375 293.25 C-180.87464844 294.14203125 -181.81179688 295.0340625 -182.77734375 295.953125 C-183.51082031 296.62859375 -184.24429687 297.3040625 -185 298 C-188 297 -188 297 -188.88793945 295.36791992 C-189.12730225 294.66256104 -189.36666504 293.95720215 -189.61328125 293.23046875 C-189.88865723 292.43519775 -190.1640332 291.63992676 -190.44775391 290.82055664 C-190.87580322 289.5171936 -190.87580322 289.5171936 -191.3125 288.1875 C-191.61591309 287.28314209 -191.91932617 286.37878418 -192.23193359 285.44702148 C-192.86098997 283.55575053 -193.48328752 281.66221934 -194.09912109 279.76660156 C-194.91809688 277.2515247 -195.7637379 274.7470484 -196.61328125 272.2421875 C-207.42343061 239.45679988 -209.90987916 202.92122495 -203 169 C-202.73461426 167.68805664 -202.73461426 167.68805664 -202.46386719 166.34960938 C-196.7952812 139.1913062 -186.67877678 113.9851947 -171 91 C-170.33484375 90.02160156 -169.6696875 89.04320312 -168.984375 88.03515625 C-156.71967398 70.66016314 -142.10506579 55.59794691 -125 43 C-124.33452148 42.50612793 -123.66904297 42.01225586 -122.98339844 41.50341797 C-106.52695959 29.35956813 -87.45146687 16.71653137 -67.37109375 11.66796875 C-64.7760271 10.97955064 -64.7760271 10.97955064 -61.484375 9.6171875 C-42.0786311 2.24629278 -20.6324993 -0.18291223 0 0 Z " transform="translate(506,311)" style="fill: #687980;"/><path d="M0 0 C5.14158875 0.64067115 9.59141249 2.17271953 14.375 4.0625 C15.16374512 4.37340576 15.95249023 4.68431152 16.76513672 5.00463867 C37.2959525 13.25520584 56.27577754 24.27577754 72 40 C71.72317437 44.24465971 70.81645906 46.81617671 68 50 C63.5581111 49.10848776 60.58898707 46.64544269 57.0625 43.9375 C41.71392226 32.45165076 25.19166846 24.13461449 7.67504883 16.52539062 C2.09620205 14.09620205 2.09620205 14.09620205 1 13 C0.76518307 10.81707226 0.58636677 8.62796826 0.4375 6.4375 C0.35371094 5.23996094 0.26992188 4.04242188 0.18359375 2.80859375 C0.12300781 1.88175781 0.06242188 0.95492188 0 0 Z " transform="translate(569,321)" style="fill: #69767E;"/><path d="M0 0 C0 0.66 0 1.32 0 2 C0.66 2.33 1.32 2.66 2 3 C2.66 3.66 3.32 4.32 4 5 C5.32 4.34 6.64 3.68 8 3 C10.89560852 5.1416098 13.60197225 7.30357513 16 10 C16.25519735 14.33835496 14.83535661 16.79481427 12 20 C8.11646645 19.37421734 5.53966724 17.5190067 2.375 15.25 C1.41335938 14.57453125 0.45171875 13.8990625 -0.5390625 13.203125 C-3.15836676 10.85822405 -4.09400467 9.36200675 -5 6 C-4.75 3.25 -4.75 3.25 -4 1 C-2 0 -2 0 0 0 Z " transform="translate(625,351)" style="fill: #66737D;"/><path d="M0 0 C1.94326172 -0.05607422 1.94326172 -0.05607422 3.92578125 -0.11328125 C8.27100697 0.37854596 10.37409434 1.50188731 13.6875 4.3125 C14.5625 7.5625 14.5625 7.5625 14.6875 10.3125 C12.6875 8.3125 12.6875 8.3125 12.6875 5.3125 C12.0275 5.3125 11.3675 5.3125 10.6875 5.3125 C10.6875 4.6525 10.6875 3.9925 10.6875 3.3125 C8.62507383 3.28532308 6.56254297 3.2660242 4.5 3.25 C3.35144531 3.23839844 2.20289063 3.22679687 1.01953125 3.21484375 C-1.93942218 3.30156571 -4.48203868 3.4572527 -7.3125 4.3125 C-8.32437895 5.97198148 -9.3251546 7.63830562 -10.3125 9.3125 C-11.6325 9.3125 -12.9525 9.3125 -14.3125 9.3125 C-14.250625 9.9725 -14.18875 10.6325 -14.125 11.3125 C-14.3277966 14.55724562 -15.24984122 17.12637266 -16.453125 20.12890625 C-17.34578585 22.39707633 -18.11932245 24.68284589 -18.875 27 C-19.91217835 30.15520572 -21.02724372 33.24765811 -22.3125 36.3125 C-22.9725 36.3125 -23.6325 36.3125 -24.3125 36.3125 C-24.250625 37.116875 -24.18875 37.92125 -24.125 38.75 C-24.43928762 44.72146481 -26.57485366 50.03752291 -29.3125 55.3125 C-29.6425 55.9725 -29.9725 56.6325 -30.3125 57.3125 C-30.9725 57.3125 -31.6325 57.3125 -32.3125 57.3125 C-32.3125 58.9625 -32.3125 60.6125 -32.3125 62.3125 C-32.9725 62.3125 -33.6325 62.3125 -34.3125 62.3125 C-32.32624776 52.66498914 -28.92658699 43.79431053 -25.26513672 34.69433594 C-23.99490062 31.51842016 -22.75924324 28.32959732 -21.52539062 25.1394043 C-20.64768375 22.87112225 -19.76400058 20.60525176 -18.87890625 18.33984375 C-17.93446633 15.92024632 -17.00542962 13.49724285 -16.08984375 11.06640625 C-15.58130859 9.73416016 -15.58130859 9.73416016 -15.0625 8.375 C-14.78921875 7.64410156 -14.5159375 6.91320312 -14.234375 6.16015625 C-13.18788543 4.06274282 -12.11403652 2.80634836 -10.3125 1.3125 C-6.74809582 0.12436527 -3.75775218 0.07062047 0 0 Z " transform="translate(503.3125,459.6875)" style="fill: #CF4546;"/><path d="M0 0 C-0.33 1.65 -0.66 3.3 -1 5 C-2.98 5 -4.96 5 -7 5 C-7.66 6.32 -8.32 7.64 -9 9 C-11 9 -13 9 -15 9 C-15 10.65 -15 12.3 -15 14 C-16.3303125 14.12375 -16.3303125 14.12375 -17.6875 14.25 C-21.41255464 15.0934086 -23.20928838 16.45552764 -26 19 C-26 18.34 -26 17.68 -26 17 C-26.5775 17.474375 -27.155 17.94875 -27.75 18.4375 C-29.99802473 19.99862828 -31.39583979 20.36868843 -34 21 C-35.68208635 21.97383946 -37.34738161 22.97695052 -39 24 C-44.66666667 27 -44.66666667 27 -47 27 C-47 27.66 -47 28.32 -47 29 C-49.97 29 -52.94 29 -56 29 C-56 29.66 -56 30.32 -56 31 C-57.65 30.67 -59.3 30.34 -61 30 C-57.6920352 27.21477532 -54.34361569 25.83342905 -50.3125 24.3125 C-34.8820959 18.32162609 -20.2270964 10.98123949 -6.3125 2 C-3 0 -3 0 0 0 Z " transform="translate(649,729)" style="fill: #5F6874;"/><path d="M0 0 C0 0.66 0 1.32 0 2 C-11.27662674 8.42426008 -22.85582302 13.44428969 -35 18 C-36.20785156 18.45890625 -37.41570313 18.9178125 -38.66015625 19.390625 C-44.34947534 21.43331352 -48.95365516 22.46510345 -55 22 C-55.33 21.34 -55.66 20.68 -56 20 C-54.1291122 19.32187886 -52.25305707 18.6580054 -50.375 18 C-49.33085938 17.62875 -48.28671875 17.2575 -47.2109375 16.875 C-43.98225494 15.99516436 -41.32755706 15.84011738 -38 16 C-38 15.34 -38 14.68 -38 14 C-35.69 14 -33.38 14 -31 14 C-31 13.34 -31 12.68 -31 12 C-24.81840091 8.76799642 -18.92007364 6.22118947 -12 5 C-12 4.34 -12 3.68 -12 3 C-11.34 3 -10.68 3 -10 3 C-10 2.34 -10 1.68 -10 1 C-6.59437148 0.22157062 -3.49234244 -0.09978121 0 0 Z " transform="translate(607,689)" style="fill: #0D1D1E;"/><path d="M0 0 C0.66 0.33 1.32 0.66 2 1 C1.41662915 4.0140827 0.77127784 7.00792117 0.0859375 10 C-3.71682315 27.14350818 -5.5484358 44.29074636 -6.31640625 61.80102539 C-6.37957031 63.11449951 -6.44273437 64.42797363 -6.5078125 65.78125 C-6.55566895 66.95751953 -6.60352539 68.13378906 -6.65283203 69.34570312 C-6.76739746 70.22162109 -6.88196289 71.09753906 -7 72 C-7.99 72.495 -7.99 72.495 -9 73 C-9.50479086 48.47493012 -8.33246654 24.63782586 -1 1 C-0.67 0.67 -0.34 0.34 0 0 Z " transform="translate(309,458)" style="fill: #79888D;"/><path d="M0 0 C8.93991211 1.14963337 16.45104059 2.96736039 24 8 C26.62531524 8.16713569 26.62531524 8.16713569 29 8 C28.938125 8.680625 28.87625 9.36125 28.8125 10.0625 C28.84425295 13.19776479 28.84425295 13.19776479 30.5625 16.5625 C32.03878317 20.09274237 32.11547357 20.62403031 31 24 C30.65388672 22.98679687 30.65388672 22.98679687 30.30078125 21.953125 C27.38440625 13.97632065 24.38355723 11.08736516 16.8125 7.3125 C11.54811822 4.9807222 6.72905885 4.13670205 1 4 C1.94820172 11.07504364 4.08422733 17.90597232 6.00390625 24.765625 C6.27332031 25.76335937 6.54273438 26.76109375 6.8203125 27.7890625 C7.07055176 28.69350098 7.32079102 29.59793945 7.57861328 30.52978516 C8.01311815 33.07690001 7.8293743 34.57963875 7 37 C4.52515287 30.98965697 3.00563995 25.01565803 1.6484375 18.66015625 C1.26686181 16.09368487 1.26686181 16.09368487 0 15 C-0.04063832 13.33382885 -0.042721 11.66611905 0 10 C-0.66 10 -1.32 10 -2 10 C-2 7.36 -2 4.72 -2 2 C-1.34 2 -0.68 2 0 2 C0 1.34 0 0.68 0 0 Z " transform="translate(403,418)" style="fill: #412E30;"/><path d="M0 0 C-1 3 -1 3 -3.375 4.1875 C-6 5 -6 5 -9 5 C-9 5.66 -9 6.32 -9 7 C-10.10408203 7.40992188 -10.10408203 7.40992188 -11.23046875 7.828125 C-15.53940566 9.65137052 -19.18205778 12.32174203 -23 15 C-23.76699219 15.53496094 -24.53398437 16.06992187 -25.32421875 16.62109375 C-29.65709886 19.51945839 -29.65709886 19.51945839 -32 24 C-34.19921875 25.45703125 -34.19921875 25.45703125 -37 27 C-38.94116104 28.22337679 -40.87863495 29.45262231 -42.8125 30.6875 C-43.78832031 31.31011719 -44.76414062 31.93273437 -45.76953125 32.57421875 C-46.50558594 33.04472656 -47.24164063 33.51523437 -48 34 C-48 31 -48 31 -46.5234375 29.30859375 C-12.87056367 0 -12.87056367 0 0 0 Z " transform="translate(417,333)" style="fill: #878D96;"/><path d="M0 0 C7.26335986 2.13058556 13.65694399 4.29292571 17.95385742 10.96362305 C20.30518054 15.54060931 21.5598903 20.57936296 23 25.5 C23.34667725 26.66096191 23.69335449 27.82192383 24.05053711 29.01806641 C24.73327342 31.31053361 25.41171366 33.60428549 26.08544922 35.89941406 C26.85227025 38.49915434 27.63861563 41.0909067 28.44140625 43.6796875 C28.99634766 45.50886719 28.99634766 45.50886719 29.5625 47.375 C29.87316406 48.39335937 30.18382812 49.41171875 30.50390625 50.4609375 C31.01289335 53.06598958 30.88525522 54.52597547 30 57 C27.58314288 52.77050005 26.65166856 49.87664009 27 45 C26.34 45 25.68 45 25 45 C24.896875 44.01 24.79375 43.02 24.6875 42 C23.95449951 36.82711083 21.99845466 32.15456005 19.8125 27.4375 C18.74480862 24.23442586 18.86860307 21.35062176 19 18 C18.34 18 17.68 18 17 18 C16.71125 17.113125 16.4225 16.22625 16.125 15.3125 C15.75375 14.219375 15.3825 13.12625 15 12 C14.731875 11.071875 14.46375 10.14375 14.1875 9.1875 C13.17779294 6.72016575 13.17779294 6.72016575 10.375 6.1875 C9.59125 6.125625 8.8075 6.06375 8 6 C8 5.34 8 4.68 8 4 C7.4225 3.855625 6.845 3.71125 6.25 3.5625 C4.16666667 3.04166667 2.08333333 2.52083333 0 2 C0 1.34 0 0.68 0 0 Z " transform="translate(414,423)" style="fill: #C84949;"/><path d="M0 0 C0.33 0.99 0.66 1.98 1 3 C1.66 3 2.32 3 3 3 C3 5.31 3 7.62 3 10 C3.66 10 4.32 10 5 10 C5.16435547 10.90878906 5.16435547 10.90878906 5.33203125 11.8359375 C6.656315 22.1144974 6.656315 22.1144974 11 31 C11.53650099 33.47511803 11.96392114 35.96281184 12.40234375 38.45703125 C12.88699791 40.96122591 12.88699791 40.96122591 13.96875 42.9296875 C17.23051458 49.47792699 18.15834267 57.761747 19 65 C20.32 65 21.64 65 23 65 C22.625 67.4375 22.625 67.4375 22 70 C21.01 70.495 21.01 70.495 20 71 C17.52947268 64.6930647 15.55264791 58.32181882 13.6875 51.8125 C13.23346802 50.24169678 13.23346802 50.24169678 12.77026367 48.63916016 C11.84310329 45.42716844 10.92078944 42.21382333 10 39 C9.72188477 38.03078613 9.44376953 37.06157227 9.15722656 36.06298828 C7.8845394 31.62555238 6.61658349 27.18683213 5.35546875 22.74609375 C4.49877942 19.73343325 3.62785644 16.72576614 2.73828125 13.72265625 C2.37089844 12.47355469 2.00351562 11.22445313 1.625 9.9375 C1.30789063 8.87402344 0.99078125 7.81054688 0.6640625 6.71484375 C0 4 0 4 0 0 Z " transform="translate(442,465)" style="fill: #3E181B;"/><path d="M0 0 C0.93423645 3.01031744 1.04449911 3.86650268 0 7 C-0.66 7 -1.32 7 -2 7 C-2.433125 7.86625 -2.433125 7.86625 -2.875 8.75 C-3.24625 9.4925 -3.6175 10.235 -4 11 C-4.33 11.721875 -4.66 12.44375 -5 13.1875 C-6 15 -6 15 -8 16 C-8.65213292 18.02463255 -8.65213292 18.02463255 -9 20 C-9.66 20 -10.32 20 -11 20 C-11.2475 20.825 -11.495 21.65 -11.75 22.5 C-12.67680736 25.0950606 -13.60571083 27.2500975 -14.875 29.65625 C-17.06639528 33.98320883 -18.69198343 38.41339 -20.25 43 C-20.6521875 44.16208984 -20.6521875 44.16208984 -21.0625 45.34765625 C-21.71321767 47.23008951 -22.35732065 49.11480725 -23 51 C-23.66 51 -24.32 51 -25 51 C-24.46247846 45.772603 -23.18369024 41.41967686 -21 36.625 C-20.69384766 35.94163574 -20.38769531 35.25827148 -20.07226562 34.55419922 C-7.95460595 7.95460595 -7.95460595 7.95460595 0 0 Z " transform="translate(337,400)" style="fill: #819098;"/><path d="M0 0 C0.99 0.33 1.98 0.66 3 1 C2.443125 1.66 1.88625 2.32 1.3125 3 C-0.45446193 5.29227493 -1.8241268 7.3905972 -3.25 9.875 C-6.09239087 14.51350289 -9.80481398 17.60882496 -14 21 C-15.27431243 22.07923876 -16.54535991 23.1623491 -17.8125 24.25 C-18.35519531 24.70890625 -18.89789063 25.1678125 -19.45703125 25.640625 C-21.0388717 27.03424646 -22.525212 28.49421046 -24 30 C-22.18255842 18.94389705 -7.78854642 7.5888401 0 0 Z " transform="translate(363,369)" style="fill: #717E8A;"/><path d="M0 0 C1.485 0.495 1.485 0.495 3 1 C-1.54054054 6.67567568 -1.54054054 6.67567568 -4.125 8.5 C-6.26575943 9.97429036 -6.26575943 9.97429036 -7.3125 13 C-9.63163143 17.12290032 -11.5723136 17.550939 -16 19 C-16.66 19 -17.32 19 -18 19 C-18.7115625 19.99 -18.7115625 19.99 -19.4375 21 C-19.953125 21.66 -20.46875 22.32 -21 23 C-21.99 23 -22.98 23 -24 23 C-24.268125 23.639375 -24.53625 24.27875 -24.8125 24.9375 C-26 27 -26 27 -29 28 C-29.66 27.34 -30.32 26.68 -31 26 C-29.62574984 24.89490022 -28.25052331 23.79101468 -26.875 22.6875 C-25.51568359 21.59695313 -25.51568359 21.59695313 -24.12890625 20.484375 C-21.918027 18.72892031 -19.69987475 16.98963589 -17.46484375 15.265625 C-11.26843905 10.47477862 -5.36092639 5.7438497 0 0 Z " transform="translate(681,701)" style="fill: #626C77;"/><path d="M0 0 C1.13650758 3.40952273 0.86018852 4.24575694 -0.13671875 7.59375 C-0.4207959 8.57472656 -0.70487305 9.55570312 -0.99755859 10.56640625 C-1.32836426 11.69949219 -1.65916992 12.83257812 -2 14 C-2.56311558 16.02770413 -3.11759364 18.05764953 -3.67126465 20.08795166 C-8.1441343 36.48588791 -12.63664295 52.86632432 -18 69 C-18.33 69 -18.66 69 -19 69 C-18.855625 68.01 -18.71125 67.02 -18.5625 66 C-17.99074821 62.00590535 -17.49180166 58.00467063 -17 54 C-16.34 54 -15.68 54 -15 54 C-14.885354 53.45617676 -14.77070801 52.91235352 -14.65258789 52.35205078 C-13.28373102 46.00929602 -11.58096143 39.80210661 -9.76757812 33.57421875 C-8.47982196 29.0534554 -7.6382087 24.6669011 -7 20 C-6.31640625 17.77734375 -6.31640625 17.77734375 -5.5625 15.9375 C-4.25982899 12.65552788 -3.09519694 9.35860396 -2 6 C-1 3 -1 3 0 0 Z " transform="translate(572,438)" style="fill: #481E22;"/><path d="M0 0 C0.66 1.32 1.32 2.64 2 4 C1.34 4.66 0.68 5.32 0 6 C-0.56913573 8.29646267 -1.05862741 10.61309761 -1.5 12.9375 C-2.78147612 19.67221418 -2.78147612 19.67221418 -5 23 C-5.38117636 25.17975304 -5.38117636 25.17975304 -5.5 27.5 C-5.73196335 30.97945019 -5.9701081 31.95516215 -8 35 C-8.37882861 36.98394888 -8.37882861 36.98394888 -8.5 39.0625 C-9 43 -9 43 -11 45 C-11.2165625 46.7015625 -11.2165625 46.7015625 -11.4375 48.4375 C-11.99181222 51.94814405 -12.23313124 52.95492309 -15 55 C-14.40210112 48.93063114 -13.12133915 43.39674537 -11.375 37.5625 C-10.83629757 35.72553641 -10.298583 33.8882829 -9.76171875 32.05078125 C-9.33511963 30.59599365 -9.33511963 30.59599365 -8.89990234 29.11181641 C-7.93712419 25.78257864 -7.00581434 22.44573038 -6.08203125 19.10546875 C-5.60854248 17.39411743 -5.60854248 17.39411743 -5.12548828 15.64819336 C-4.50589202 13.4034874 -3.88833957 11.15821618 -3.27294922 8.91235352 C-2.99080566 7.89455811 -2.70866211 6.8767627 -2.41796875 5.828125 C-2.04321411 4.4654248 -2.04321411 4.4654248 -1.66088867 3.07519531 C-1 1 -1 1 0 0 Z " transform="translate(592,465)" style="fill: #2D0F14;"/><path d="M0 0 C5.33260588 0.63889048 9.92523088 2.34168208 14.875 4.3125 C15.63941406 4.60833984 16.40382813 4.90417969 17.19140625 5.20898438 C22.28184287 7.20972474 27.13943573 9.49221456 32 12 C31.67 12.66 31.34 13.32 31 14 C29.35 14 27.7 14 26 14 C26 13.34 26 12.68 26 12 C23.525 11.505 23.525 11.505 21 11 C21 10.34 21 9.68 21 9 C19.989375 8.896875 18.97875 8.79375 17.9375 8.6875 C13.89247795 7.98122631 10.73723887 6.66099505 7 5 C4.22111387 4.30859478 4.22111387 4.30859478 2 4 C1.67 4.99 1.34 5.98 1 7 C0.67 4.69 0.34 2.38 0 0 Z " transform="translate(569,321)" style="fill: #7F8694;"/><path d="M0 0 C0 0.99 0 1.98 0 3 C-7.64564326 7.44683213 -15.34288302 11.79602275 -23.125 16 C-23.84679443 16.39759521 -24.56858887 16.79519043 -25.31225586 17.20483398 C-28.87211112 19.10921593 -30.8847317 20 -35 20 C-34.67 19.01 -34.34 18.02 -34 17 C-32.0187415 16.27954236 -30.01495907 15.61998741 -28 15 C-27.13375 14.46375 -26.2675 13.9275 -25.375 13.375 C-23 12 -23 12 -19 12 C-19 11.34 -19 10.68 -19 10 C-18.34 10 -17.68 10 -17 10 C-17 9.34 -17 8.68 -17 8 C-15.88625 7.566875 -14.7725 7.13375 -13.625 6.6875 C-9.82487666 5.30088881 -9.82487666 5.30088881 -8 2 C-6 1.375 -6 1.375 -4 1 C-2 0 -2 0 0 0 Z " transform="translate(643,729)" style="fill: #0D1D19;"/><path d="M0 0 C1.08357131 3.25071392 0.93978067 4.05810939 0.07421875 7.23828125 C-0.14556641 8.05876953 -0.36535156 8.87925781 -0.59179688 9.72460938 C-0.82962891 10.57861328 -1.06746094 11.43261719 -1.3125 12.3125 C-1.53873047 13.15490234 -1.76496094 13.99730469 -1.99804688 14.86523438 C-2.91669659 18.25126604 -3.86646311 21.60058786 -4.97924805 24.92895508 C-5.95362967 27.86048975 -6.82381431 30.79882096 -7.65625 33.7734375 C-7.95660156 34.8459375 -8.25695312 35.9184375 -8.56640625 37.0234375 C-9.02853516 38.68246094 -9.02853516 38.68246094 -9.5 40.375 C-9.80808594 41.47328125 -10.11617187 42.5715625 -10.43359375 43.703125 C-12.0392822 49.45052487 -13.58920066 55.2016147 -15 61 C-15.33 61 -15.66 61 -16 61 C-15.91224337 58.79095369 -15.80405633 56.58271407 -15.6875 54.375 C-15.62949219 53.14523437 -15.57148437 51.91546875 -15.51171875 50.6484375 C-14.96655334 46.76153298 -13.79601457 44.46465221 -12 41 C-10.82614164 37.5787516 -9.85097564 34.10712415 -8.875 30.625 C-8.61074219 29.7175 -8.34648438 28.81 -8.07421875 27.875 C-6.56939113 22.57372909 -5.52679696 17.48639756 -5 12 C-4.34 12 -3.68 12 -3 12 C-3 9.69 -3 7.38 -3 5 C-2.34 5 -1.68 5 -1 5 C-0.67 3.35 -0.34 1.7 0 0 Z " transform="translate(598,438)" style="fill: #C34546;"/><path d="M0 0 C1 2 1 2 0.546875 3.98828125 C-1.7747393 10.75965629 -4.18783524 16.47942741 -10 21 C-17.91047671 21.93853113 -26.36245206 20.49010596 -33 16 C-35.19130534 15.30420546 -35.19130534 15.30420546 -37 15 C-37 14.34 -37 13.68 -37 13 C-36.29875 13.19335938 -35.5975 13.38671875 -34.875 13.5859375 C-32.90084891 14.12775614 -30.92551806 14.66528897 -28.94921875 15.19921875 C-27.21933446 15.66892243 -25.49159308 16.14691268 -23.76953125 16.64453125 C-18.90422512 17.99438664 -14.970036 18.81476 -10 18 C-7.66199526 15.66199526 -6.37354198 12.98254829 -5 10 C-4.42765625 8.7625 -4.42765625 8.7625 -3.84375 7.5 C-3.14232751 5.93682988 -2.45834907 4.36564553 -1.796875 2.78515625 C-1 1 -1 1 0 0 Z " transform="translate(482,554)" style="fill: #2C0E12;"/><path d="M0 0 C3.12219299 1.56109649 3.3379464 4.16518122 4.5 7.375 C5.79321149 10.93133159 6.89716425 13.84574638 9 17 C9.3692518 18.32383609 9.6994914 19.65888723 10 21 C10.50733153 22.5877111 11.02845182 24.17107494 11.5625 25.75 C11.83191406 26.54921875 12.10132813 27.3484375 12.37890625 28.171875 C12.68634766 29.07679688 12.68634766 29.07679688 13 30 C15.24449116 27.11557574 15.24449116 27.11557574 15.4375 23.5625 C15.99696493 20.01922213 16.62167339 18.58513762 19 16 C18.37968409 22.57534861 16.85102717 28.66692592 15 35 C14.34 35 13.68 35 13 35 C12.55269531 33.91203125 12.10539063 32.8240625 11.64453125 31.703125 C11.35400879 30.99712158 11.06348633 30.29111816 10.76416016 29.5637207 C10.12636572 28.01308503 9.48932915 26.46213744 8.85302734 24.91088867 C6.61048784 19.45185176 4.30884696 14.02123592 1.9453125 8.61328125 C0.91113064 5.75432397 0.41378828 3.00656806 0 0 Z " transform="translate(531,501)" style="fill: #371113;"/><path d="M0 0 C2 1 2 1 2.8515625 3.06640625 C3.56770833 5.37760417 4.28385417 7.68880208 5 10 C8.63 10 12.26 10 16 10 C16 9.34 16 8.68 16 8 C17.04800781 7.94392578 17.04800781 7.94392578 18.1171875 7.88671875 C19.48230469 7.78810547 19.48230469 7.78810547 20.875 7.6875 C21.77992188 7.62949219 22.68484375 7.57148437 23.6171875 7.51171875 C26.36221601 7.2117961 26.36221601 7.2117961 28 4 C29.32 4 30.64 4 32 4 C32 3.01 32 2.02 32 1 C32.99 1 33.98 1 35 1 C33.83812368 4.25325369 32.09663015 6.22334377 29.1640625 8.05078125 C22.04614496 11.17290032 12.74199099 13.14696163 5 12 C1.71550536 9.22081223 1.08140872 7.41382766 0.25 3.1875 C0.1675 2.135625 0.085 1.08375 0 0 Z " transform="translate(529,561)" style="fill: #BB3E40;"/><path d="M0 0 C1.69141656 0.08963062 3.37959602 0.24577676 5.0625 0.4375 C6.44115234 0.59025391 6.44115234 0.59025391 7.84765625 0.74609375 C8.55792969 0.82988281 9.26820313 0.91367187 10 1 C10 1.33 10 1.66 10 2 C7.03 2 4.06 2 1 2 C1.47505678 3.81358154 1.95516042 5.62584179 2.4375 7.4375 C2.83775391 8.95150391 2.83775391 8.95150391 3.24609375 10.49609375 C3.75978077 12.91752001 3.75978077 12.91752001 5 14 C5.3529869 15.30219536 5.65686497 16.61781955 5.9375 17.9375 C6.11152344 18.74445313 6.28554688 19.55140625 6.46484375 20.3828125 C6.82529703 22.14561319 7.17138663 23.91140484 7.50390625 25.6796875 C7.66761719 26.54851562 7.83132813 27.41734375 8 28.3125 C8.2165625 29.51326172 8.2165625 29.51326172 8.4375 30.73828125 C8.91915449 33.03183886 8.91915449 33.03183886 10.0546875 35.08984375 C11.37265326 37.75300597 11.13293575 40.07541344 11 43 C8.61867059 39.42800589 7.71367775 35.84404167 6.625 31.75 C6.40875977 30.95239258 6.19251953 30.15478516 5.96972656 29.33300781 C5.52522453 27.69011262 5.08317881 26.04655094 4.64355469 24.40234375 C4.04337484 22.1619152 3.43367567 19.92434906 2.8203125 17.6875 C-0.39420218 5.87523004 -0.39420218 5.87523004 -1 1 C-0.67 0.67 -0.34 0.34 0 0 Z " transform="translate(404,421)" style="fill: #CB4B48;"/><path d="M0 0 C-2.09122731 4.63392638 -5.3227011 7.69046628 -8.875 11.25 C-9.50019531 11.8996875 -10.12539063 12.549375 -10.76953125 13.21875 C-11.37925781 13.83234375 -11.98898437 14.4459375 -12.6171875 15.078125 C-13.17003418 15.63918945 -13.72288086 16.20025391 -14.29248047 16.77832031 C-16 18 -16 18 -20 18 C-17.44066767 12.51916568 -14.28099707 7.97153579 -8.625 5.5625 C-7.75875 5.376875 -6.8925 5.19125 -6 5 C-6 4.34 -6 3.68 -6 3 C-5.34 3 -4.68 3 -4 3 C-4 2.34 -4 1.68 -4 1 C-2 0 -2 0 0 0 Z " transform="translate(657,649)" style="fill: #0F1A1A;"/><path d="M0 0 C1 3 1 3 0.07421875 5.41015625 C-0.38339844 6.28542969 -0.84101563 7.16070313 -1.3125 8.0625 C-1.98732422 9.37927734 -1.98732422 9.37927734 -2.67578125 10.72265625 C-4 13 -4 13 -6 15 C-15.24902559 16.06719526 -24.55598223 12.53026732 -33 9 C-29.67465243 7.89155081 -27.37817425 8.15545644 -24 9 C-24 9.66 -24 10.32 -24 11 C-21.69 11 -19.38 11 -17 11 C-17 11.66 -17 12.32 -17 13 C-13.7 13 -10.4 13 -7 13 C-7 12.34 -7 11.68 -7 11 C-6.34 10.67 -5.68 10.34 -5 10 C-4.30959426 8.34302621 -3.6469365 6.6744239 -3 5 C-2.02763513 3.3170608 -1.03435556 1.64556566 0 0 Z " transform="translate(478,558)" style="fill: #BA3B40;"/><path d="M0 0 C2.78293453 2.78293453 3.14266546 5.74620489 4.12109375 9.4921875 C5.06569891 12.18746088 6.02901171 13.93425265 8 16 C13.51470278 16.58049503 18.34258366 15.64583551 23.703125 14.33984375 C26.13554117 13.97994544 27.68310519 14.24010101 30 15 C22.5596173 19.23196371 15.45267982 19.75952547 7 20 C5 17 5 17 5 14 C4.34 14 3.68 14 3 14 C2.49307308 12.4188708 1.99473557 10.83498617 1.5 9.25 C1.2215625 8.36828125 0.943125 7.4865625 0.65625 6.578125 C0 4 0 4 0 0 Z " transform="translate(526,556)" style="fill: #381216;"/><path d="M0 0 C-5.625 3 -5.625 3 -9 3 C-9 3.66 -9 4.32 -9 5 C-14.81475715 8.27591952 -19.24520726 10.7342166 -26 10 C-26 9.34 -26 8.68 -26 8 C-23.48159568 6.86928786 -20.96051069 5.74535012 -18.4375 4.625 C-17.73302734 4.30789063 -17.02855469 3.99078125 -16.30273438 3.6640625 C-4.57402537 -1.52467512 -4.57402537 -1.52467512 0 0 Z " transform="translate(444,323)" style="fill: #868A99;"/><path d="M0 0 C-0.28388934 3.40667209 -0.64851404 4.68756804 -3.25 7 C-4.61125 7.99 -4.61125 7.99 -6 9 C-7.2065625 10.2684375 -7.2065625 10.2684375 -8.4375 11.5625 C-11.14835331 14.14111656 -13.53498746 15.61399498 -17 17 C-17.66 16.67 -18.32 16.34 -19 16 C-18.5560791 15.58637207 -18.1121582 15.17274414 -17.65478516 14.74658203 C-15.64450848 12.87309466 -13.63474857 10.99905386 -11.625 9.125 C-10.92632813 8.47402344 -10.22765625 7.82304688 -9.5078125 7.15234375 C-8.8375 6.52714844 -8.1671875 5.90195312 -7.4765625 5.2578125 C-6.85861816 4.6817627 -6.24067383 4.10571289 -5.60400391 3.51220703 C-1.87859219 0 -1.87859219 0 0 0 Z " transform="translate(652,657)" style="fill: #6C7786;"/><path d="M0 0 C0.33 0 0.66 0 1 0 C0.54759637 5.70028578 -0.37707654 10.50996713 -2.3125 15.87890625 C-3.13321606 18.20234278 -3.13321606 18.20234278 -3.5 21.5625 C-4.00547092 25.03761256 -5.00677193 27.76813283 -6.30078125 31 C-7.34237545 33.97930856 -7.67368156 36.86734298 -8 40 C-8.99 40 -9.98 40 -11 40 C-10.36652346 33.20718232 -8.20287301 27.01392521 -6.0625 20.5625 C-3.81763929 13.74760085 -1.62280346 6.99249868 0 0 Z " transform="translate(563,474)" style="fill: #CA4448;"/><path d="M0 0 C0.33 0.66 0.66 1.32 1 2 C-3.87070187 3.88989379 -8.22391338 4.4014447 -13.375 4.625 C-14.47908203 4.68300781 -14.47908203 4.68300781 -15.60546875 4.7421875 C-17.40327406 4.83557998 -19.20160108 4.9188371 -21 5 C-21.33 4.01 -21.66 3.02 -22 2 C-21.30132813 2.02320313 -20.60265625 2.04640625 -19.8828125 2.0703125 C-18.51769531 2.09738281 -18.51769531 2.09738281 -17.125 2.125 C-16.22007812 2.14820313 -15.31515625 2.17140625 -14.3828125 2.1953125 C-11.81193006 2.24324836 -11.81193006 2.24324836 -10 0 C-6.37535212 -1.07759802 -3.62333155 -1.10712909 0 0 Z " transform="translate(549,711)" style="fill: #0C1C1F;"/><path d="M0 0 C2.18389212 3.27583818 2.91018427 5.88075574 3.91015625 9.6796875 C4.08252304 10.32946564 4.25488983 10.97924377 4.43247986 11.64871216 C4.79557162 13.02146728 5.15599076 14.39493171 5.51391602 15.76904297 C6.05907509 17.86185212 6.61177132 19.95254932 7.16601562 22.04296875 C9.89992223 32.40878217 9.89992223 32.40878217 10.48608398 35.87158203 C10.65567627 36.57395996 10.82526855 37.27633789 11 38 C11.66 38.33 12.32 38.66 13 39 C12.01 39 11.02 39 10 39 C9.49663233 37.37604003 8.99741024 35.75079459 8.5 34.125 C8.2215625 33.22007812 7.943125 32.31515625 7.65625 31.3828125 C7 29 7 29 7 27 C6.34 27 5.68 27 5 27 C4.94392578 26.12988281 4.94392578 26.12988281 4.88671875 25.2421875 C4.4560397 20.124707 3.48916969 16.56347777 1 12 C-0.13138856 7.9887133 -0.08141643 4.15223797 0 0 Z " transform="translate(432,528)" style="fill: #5F2429;"/><path d="M0 0 C2.81862459 2.81862459 3.58051237 6.23438362 4.8125 9.9375 C6.890537 16.02940256 9.20139868 21.86347632 11.96484375 27.68359375 C13.32950555 30.73734638 14.20686626 33.75536196 15 37 C14.01 36.67 13.02 36.34 12 36 C11.15625 34.1796875 11.15625 34.1796875 10.5 31.875 C9.59136949 28.85584676 8.61877166 25.99511802 7.3125 23.125 C6 20 6 20 6 17 C5.34 17 4.68 17 4 17 C4 15.35 4 13.7 4 12 C3.34 12 2.68 12 2 12 C0.86235649 7.73383684 0 4.43513689 0 0 Z " transform="translate(529,499)" style="fill: #C44040;"/><path d="M0 0 C0.99 0.33 1.98 0.66 3 1 C-1.23827615 4.30951996 -5.81612044 6.69146694 -10.5625 9.1875 C-11.42552734 9.65091797 -12.28855469 10.11433594 -13.17773438 10.59179688 C-14.00724609 11.02943359 -14.83675781 11.46707031 -15.69140625 11.91796875 C-16.44623291 12.31781982 -17.20105957 12.7176709 -17.97875977 13.12963867 C-20 14 -20 14 -23 14 C-23 13.34 -23 12.68 -23 12 C-20.36107824 10.21694476 -18.02821137 9.00940379 -15 8 C-14.67 7.01 -14.34 6.02 -14 5 C-11.34765625 4.12109375 -11.34765625 4.12109375 -8.0625 3.4375 C-3.54930364 2.63309828 -3.54930364 2.63309828 0 0 Z " transform="translate(425,325)" style="fill: #102419;"/><path d="M0 0 C0.99 0.33 1.98 0.66 3 1 C-3.68081711 5.31425807 -10.13357807 9.38872416 -17.64453125 12.12109375 C-20.89050672 13.33227863 -23.9781573 14.84414576 -27.08984375 16.36328125 C-29 17 -29 17 -32 16 C-23.81808928 11.83555442 -15.55481855 7.86949862 -7.23706055 3.98461914 C-6.44340088 3.61199951 -5.64974121 3.23937988 -4.83203125 2.85546875 C-4.11764893 2.52184326 -3.4032666 2.18821777 -2.66723633 1.84448242 C-1.00998566 1.11374928 -1.00998566 1.11374928 0 0 Z " transform="translate(609,689)" style="fill: #7F899B;"/><path d="M0 0 C2.96235653 4.4435348 4.09437313 9.35096559 5.625 14.4375 C5.94984375 15.48744141 6.2746875 16.53738281 6.609375 17.61914062 C7.06957031 19.13604492 7.06957031 19.13604492 7.5390625 20.68359375 C7.81959473 21.60712646 8.10012695 22.53065918 8.38916016 23.48217773 C9 26 9 26 9 30 C8.01 29.67 7.02 29.34 6 29 C6 26.36 6 23.72 6 21 C5.34 21 4.68 21 4 21 C3.32382476 18.62734939 2.65891774 16.25244645 2 13.875 C1.80921875 13.20984375 1.6184375 12.5446875 1.421875 11.859375 C0.30791545 7.8013795 -0.20950232 4.20314026 0 0 Z " transform="translate(411,455)" style="fill: #53272D;"/><path d="M0 0 C0.66 0.33 1.32 0.66 2 1 C1.52949219 1.73605469 1.05898438 2.47210937 0.57421875 3.23046875 C-0.04839844 4.20628906 -0.67101562 5.18210937 -1.3125 6.1875 C-1.92738281 7.15042969 -2.54226563 8.11335937 -3.17578125 9.10546875 C-4.82137245 11.71656743 -6.4219923 14.34769893 -8 17 C-10.84422866 21.70768882 -13.70245485 24.67916965 -18 28 C-16.56903822 23.8358255 -14.51942613 20.83203819 -11.8125 17.375 C-7.52451036 11.78257338 -3.68121996 6.01305382 0 0 Z " transform="translate(680,618)" style="fill: #778488;"/><path d="M0 0 C0.99 0 1.98 0 3 0 C3.433125 1.11375 3.86625 2.2275 4.3125 3.375 C5.69911119 7.17512334 5.69911119 7.17512334 9 9 C8.01 10.32 7.02 11.64 6 13 C2.73045798 12.43628586 1.17424117 11.50037734 -1 9 C-0.34 8.01 0.32 7.02 1 6 C0.68493373 2.85778033 0.68493373 2.85778033 0 0 Z " transform="translate(631,358)" style="fill: #5D6B77;"/><path d="M0 0 C-0.99 0.495 -0.99 0.495 -2 1 C-2 1.66 -2 2.32 -2 3 C-7.70690634 3.99250545 -13.21408489 4.10477512 -19 4 C-18.67 3.01 -18.34 2.02 -18 1 C-11.97403427 -0.0712828 -6.11090483 -0.09945415 0 0 Z " transform="translate(505,327)" style="fill: #101922;"/><path d="M0 0 C-0.72724594 5.52706913 -2.33445973 10.69960141 -4 16 C-4.33 16 -4.66 16 -5 16 C-5.3152595 10.01006953 -4.68219822 6.36439644 -2 1 C-3.44632813 1.45052734 -3.44632813 1.45052734 -4.921875 1.91015625 C-6.81679688 2.48056641 -6.81679688 2.48056641 -8.75 3.0625 C-10.00296875 3.44535156 -11.2559375 3.82820313 -12.546875 4.22265625 C-15.6738008 4.92656828 -17.09466046 5.16653785 -20 4 C-6.3667426 -0.59225513 -6.3667426 -0.59225513 0 0 Z " transform="translate(604,422)" style="fill: #C34A48;"/><path d="M0 0 C0.99 0.33 1.98 0.66 3 1 C1.71034824 2.37562854 0.37310707 3.70766393 -1 5 C-1.66 5 -2.32 5 -3 5 C-3 5.99 -3 6.98 -3 8 C-4.57421875 9.68359375 -4.57421875 9.68359375 -6.6875 11.4375 C-7.41324219 12.0459375 -8.13898438 12.654375 -8.88671875 13.28125 C-13.92432432 17.37837838 -13.92432432 17.37837838 -16 19 C-12.57875825 11.47326814 -5.84955582 5.68953757 0 0 Z " transform="translate(363,369)" style="fill: #88929B;"/><path d="M0 0 C0 4.33685836 -2.08014014 5.9443327 -5 9 C-5.99 9 -6.98 9 -8 9 C-8.268125 9.639375 -8.53625 10.27875 -8.8125 10.9375 C-10 13 -10 13 -13 14 C-13.66 13.34 -14.32 12.68 -15 12 C-10 8 -5 4 0 0 Z " transform="translate(665,715)" style="fill: #606A75;"/><path d="M0 0 C0.66 0.33 1.32 0.66 2 1 C1.2575 1.556875 0.515 2.11375 -0.25 2.6875 C-3.04971404 4.82718917 -3.04971404 4.82718917 -4.6875 7.5 C-8.10520118 11.19481208 -12.30869697 12.39743656 -17 14 C-15.87014611 10.61043834 -15.26130237 10.21425749 -12.40234375 8.30078125 C-11.68369141 7.81416016 -10.96503906 7.32753906 -10.22460938 6.82617188 C-9.46986328 6.32666016 -8.71511719 5.82714844 -7.9375 5.3125 C-7.17888672 4.80138672 -6.42027344 4.29027344 -5.63867188 3.76367188 C-3.76375915 2.50193815 -1.8842038 1.24779821 0 0 Z " transform="translate(630,675)" style="fill: #818998;"/><path d="M0 0 C0.66 0 1.32 0 2 0 C-1.62812211 18.38020352 -1.62812211 18.38020352 -5 24 C-6.14184472 20.6252898 -5.84408845 18.60566936 -4.78515625 15.234375 C-4.37426758 13.90019531 -4.37426758 13.90019531 -3.95507812 12.5390625 C-3.66052734 11.61867188 -3.36597656 10.69828125 -3.0625 9.75 C-2.77181641 8.81414062 -2.48113281 7.87828125 -2.18164062 6.9140625 C-1.46343503 4.6063855 -0.73596262 2.30206318 0 0 Z " transform="translate(601,432)" style="fill: #3B1219;"/><path d="M0 0 C1.485 0.99 1.485 0.99 3 2 C2.67 2.99 2.34 3.98 2 5 C2.66 5.33 3.32 5.66 4 6 C4.12375 6.825 4.2475 7.65 4.375 8.5 C4.93800424 11.65282373 5.70687299 13.71330498 7.0625 16.5625 C8.60769022 19.864856 9.47905902 22.28729256 9 26 C4.05028505 18.57542757 -0.5522892 9.11277172 0 0 Z " transform="translate(520,470)" style="fill: #34131A;"/><path d="M0 0 C0.66 0.66 1.32 1.32 2 2 C0.02 7.61 -1.96 13.22 -4 19 C-4.66 19 -5.32 19 -6 19 C-5.52877252 12.0886636 -2.79363994 6.27795839 0 0 Z " transform="translate(318,432)" style="fill: #7B8A91;"/><path d="M0 0 C2.36585885 4.47985378 3.72047876 9.16745945 5.1875 14 C5.47302734 14.90234375 5.75855469 15.8046875 6.05273438 16.734375 C6.31763672 17.60578125 6.58253906 18.4771875 6.85546875 19.375 C7.09934326 20.16648437 7.34321777 20.95796875 7.59448242 21.7734375 C8.03630173 24.19932074 7.77426751 25.6821586 7 28 C6.34 27.67 5.68 27.34 5 27 C4.47265625 24.375 4.47265625 24.375 4.0625 21 C3.37849832 16.00952376 2.32539372 11.59328539 0.59765625 6.87890625 C-0.14787899 4.53509938 -0.23620313 2.44076571 0 0 Z " transform="translate(452,504)" style="fill: #C04141;"/><path d="M0 0 C2.10750456 3.67378226 2.2428584 5.99282709 1.6171875 10.10546875 C0.63706903 13.11406026 -1.43121815 14.30836317 -4 16 C-4.66 16.99 -5.32 17.98 -6 19 C-8.625 19.1875 -8.625 19.1875 -11 19 C-10.236875 18.443125 -9.47375 17.88625 -8.6875 17.3125 C-3.20202099 12.59243666 -1.85242592 6.76595281 0 0 Z " transform="translate(567,551)" style="fill: #250E15;"/><path d="M0 0 C2 1 2 1 2.74609375 3.0390625 C3.08833984 4.31910156 3.08833984 4.31910156 3.4375 5.625 C4.31615052 8.77832954 5.21771756 11.46055638 6.625 14.4375 C8.47801649 19.23849728 8.73218911 23.89312343 9 29 C7.03890606 26.05835909 6.24687943 23.89057177 5.2734375 20.52734375 C4.9640625 19.46322266 4.6546875 18.39910156 4.3359375 17.30273438 C4.01882813 16.19220703 3.70171875 15.08167969 3.375 13.9375 C3.05015625 12.82310547 2.7253125 11.70871094 2.390625 10.56054688 C0 2.27873884 0 2.27873884 0 0 Z " transform="translate(425,502)" style="fill: #CE4443;"/><path d="M0 0 C4.29 0 8.58 0 13 0 C13 0.33 13 0.66 13 1 C12.24976563 1.09796875 11.49953125 1.1959375 10.7265625 1.296875 C4.3819943 2.22378925 -1.17234714 3.59421216 -7.0390625 6.1953125 C-9 7 -9 7 -11 7 C-10.67 6.01 -10.34 5.02 -10 4 C-8.35 4 -6.7 4 -5 4 C-5.33 3.01 -5.66 2.02 -6 1 C-3.03 1.495 -3.03 1.495 0 2 C0 1.34 0 0.68 0 0 Z " transform="translate(591,421)" style="fill: #3E2C25;"/><path d="M0 0 C6.435 2.97 6.435 2.97 13 6 C12.67 6.66 12.34 7.32 12 8 C10.35 8 8.7 8 7 8 C7 7.34 7 6.68 7 6 C5.35 5.67 3.7 5.34 2 5 C2 4.34 2 3.68 2 3 C-0.31 2.67 -2.62 2.34 -5 2 C-2 1 -2 1 0 2 C0 1.34 0 0.68 0 0 Z " transform="translate(588,327)" style="fill: #79808A;"/><path d="M0 0 C-6.37295696 3.17476348 -11.84937514 5.59524765 -19 6 C-19 5.34 -19 4.68 -19 4 C-16.79645201 3.265484 -14.59268289 2.53192843 -12.38671875 1.8046875 C-10.47312397 1.15951479 -8.57688108 0.46297399 -6.6875 -0.25 C-3.83402593 -1.04631835 -2.75197675 -0.8214856 0 0 Z " transform="translate(601,753)" style="fill: #0D1E19;"/><path d="M0 0 C1.03033882 2.12040742 2.04902854 4.24647908 3.0625 6.375 C3.63097656 7.55835938 4.19945312 8.74171875 4.78515625 9.9609375 C5.18605469 10.96382812 5.58695312 11.96671875 6 13 C5.67 13.66 5.34 14.32 5 15 C0 6.81818182 0 6.81818182 0 3 C-0.99 3 -1.98 3 -3 3 C-3.33 4.32 -3.66 5.64 -4 7 C-4.66 7 -5.32 7 -6 7 C-3.76595745 0 -3.76595745 0 0 0 Z " transform="translate(505,503)" style="fill: #451116;"/><path d="M0 0 C2.71322303 4.06983454 3.51735889 8.22693195 4.6875 12.9375 C5.04424805 14.2977832 5.04424805 14.2977832 5.40820312 15.68554688 C5.62798828 16.56146484 5.84777344 17.43738281 6.07421875 18.33984375 C6.27619873 19.13769287 6.47817871 19.93554199 6.6862793 20.75756836 C7.02147491 23.15349966 6.7450949 24.71775964 6 27 C2.4147074 18.63431726 0 9.12383265 0 0 Z " transform="translate(404,428)" style="fill: #55292C;"/><path d="M0 0 C0.66 0.66 1.32 1.32 2 2 C-3.28 7.28 -8.56 12.56 -14 18 C-14.66 17.67 -15.32 17.34 -16 17 C-14.94232422 15.95779297 -14.94232422 15.95779297 -13.86328125 14.89453125 C-10.87802862 11.90927862 -8.02862348 8.80932192 -5.1875 5.6875 C-4.68541016 5.13771484 -4.18332031 4.58792969 -3.66601562 4.02148438 C-2.44296032 2.68194761 -1.22132992 1.34111008 0 0 Z " transform="translate(366,363)" style="fill: #0C1F19;"/><path d="M0 0 C2.72772048 2.72772048 3.7460131 5.97005745 5.125 9.5 C5.54072266 10.53447266 5.54072266 10.53447266 5.96484375 11.58984375 C8 16.73287408 8 16.73287408 8 19 C7.01 19 6.02 19 5 19 C1.66740815 13.04894313 0.70295842 6.67810503 0 0 Z " transform="translate(518,536)" style="fill: #3D1218;"/><path d="M0 0 C1.29550781 -0.02835937 2.59101563 -0.05671875 3.92578125 -0.0859375 C8.25197909 0.44416774 10.38156187 1.57573827 13.6875 4.375 C14.5625 7.625 14.5625 7.625 14.6875 10.375 C12.6875 8.375 12.6875 8.375 12.6875 5.375 C12.0275 5.375 11.3675 5.375 10.6875 5.375 C10.6875 4.715 10.6875 4.055 10.6875 3.375 C9.0375 3.375 7.3875 3.375 5.6875 3.375 C5.6875 2.715 5.6875 2.055 5.6875 1.375 C-2.2325 1.87 -2.2325 1.87 -10.3125 2.375 C-6.5819077 -0.11206153 -4.45174196 0.04403306 0 0 Z " transform="translate(503.3125,459.625)" style="fill: #B04B47;"/><path d="M0 0 C0.66 0.66 1.32 1.32 2 2 C1.72924157 4.57220512 1.25224204 6.5428113 0 8.8125 C-1.02813119 11.06153698 -1.21927419 12.62193376 -1.4375 15.0625 C-2 19 -2 19 -3.5625 21 C-4.036875 21.33 -4.51125 21.66 -5 22 C-4.38955672 14.36945905 -2.20378179 7.29810526 0 0 Z " transform="translate(569,452)" style="fill: #BF403F;"/><path d="M0 0 C1.32 0.33 2.64 0.66 4 1 C3.67 1.99 3.34 2.98 3 4 C1.34795544 4.70211894 -0.31923769 5.36971413 -2 6 C-2.33 6.66 -2.66 7.32 -3 8 C-5.64860427 8.59355614 -8.29197322 8.74209269 -11 9 C-11 9.66 -11 10.32 -11 11 C-11.99 10.67 -12.98 10.34 -14 10 C-12 8 -12 8 -8 8 C-8 7.34 -8 6.68 -8 6 C-5.36 5.01 -2.72 4.02 0 3 C0 2.01 0 1.02 0 0 Z " transform="translate(416,332)" style="fill: #757F8E;"/><path d="M0 0 C1.17457863 3.52373588 0.83119177 4.02066285 -0.6875 7.25 C-1.05746094 8.03761719 -1.42742188 8.82523438 -1.80859375 9.63671875 C-3.42185264 12.83678967 -5.16587685 15.92129329 -7 19 C-8.31741179 15.97680647 -7.92824489 14.78571426 -6.85546875 11.58203125 C-6.31133936 10.32033951 -5.75491704 9.06389153 -5.1875 7.8125 C-4.91357422 7.17119141 -4.63964844 6.52988281 -4.35742188 5.86914062 C-2.27359089 1.13679545 -2.27359089 1.13679545 0 0 Z " transform="translate(695,589)" style="fill: #68777D;"/><path d="M0 0 C1.11862671 3.35588013 0.92233352 3.89605014 -0.25 7.0625 C-2.01009929 11.99402242 -3.52164155 16.97777519 -5 22 C-6.73003446 16.04243774 -5.08554599 10.70049238 -3 5 C-2.34 5 -1.68 5 -1 5 C-0.67 3.35 -0.34 1.7 0 0 Z " transform="translate(570,539)" style="fill: #BC4143;"/><path d="M0 0 C9.405 1.485 9.405 1.485 19 3 C18.67 3.66 18.34 4.32 18 5 C16.00045254 5.04254356 13.99958364 5.04080783 12 5 C11.67 4.67 11.34 4.34 11 4 C9.15108054 3.76636119 7.29511969 3.58696365 5.4375 3.4375 C4.42558594 3.35371094 3.41367187 3.26992188 2.37109375 3.18359375 C1.19740234 3.09271484 1.19740234 3.09271484 0 3 C0 2.01 0 1.02 0 0 Z " transform="translate(472,713)" style="fill: #717686;"/><path d="M0 0 C0.99 0.33 1.98 0.66 3 1 C-0.38779144 4.58707329 -3.73545141 7.49689539 -8 10 C-8.99 10 -9.98 10 -11 10 C-11 9.34 -11 8.68 -11 8 C-9.1015625 6.4921875 -9.1015625 6.4921875 -6.625 4.875 C-5.81289063 4.33617187 -5.00078125 3.79734375 -4.1640625 3.2421875 C-2 2 -2 2 0 2 C0 1.34 0 0.68 0 0 Z " transform="translate(625,675)" style="fill: #0D1F19;"/><path d="M0 0 C1 3 1 3 0 5 C-0.06950541 6.54023996 -0.08452357 8.08334988 -0.0625 9.625 C-0.05347656 10.44226563 -0.04445313 11.25953125 -0.03515625 12.1015625 C-0.02355469 12.72804688 -0.01195312 13.35453125 0 14 C-0.99 14.495 -0.99 14.495 -2 15 C-2.72159424 16.64363134 -3.39351421 18.31050386 -4 20 C-4.33 20 -4.66 20 -5 20 C-3.4375 3.4375 -3.4375 3.4375 0 0 Z " transform="translate(574,530)" style="fill: #270C14;"/><path d="M0 0 C0.99 0 1.98 0 3 0 C1.46745225 4.29113371 -1.0021683 5.96601545 -5 8 C-8.66163312 8.60943275 -12.29264925 8.86806581 -16 9 C-16 8.34 -16 7.68 -16 7 C-14.95199219 6.94392578 -14.95199219 6.94392578 -13.8828125 6.88671875 C-12.51769531 6.78810547 -12.51769531 6.78810547 -11.125 6.6875 C-10.22007812 6.62949219 -9.31515625 6.57148437 -8.3828125 6.51171875 C-5.63778399 6.2117961 -5.63778399 6.2117961 -4 3 C-2.68 3 -1.36 3 0 3 C0 2.01 0 1.02 0 0 Z " transform="translate(561,562)" style="fill: #CC4044;"/><path d="M0 0 C-5.78527805 3.10429554 -11.33958217 5.40366169 -18 5 C-15.53031367 2.53031367 -13.42511413 1.93002031 -10.125 0.8125 C-9.07570313 0.44769531 -8.02640625 0.08289063 -6.9453125 -0.29296875 C-4.06405115 -0.98462433 -2.72213388 -1.03230681 0 0 Z " transform="translate(576,707)" style="fill: #798199;"/><path d="M0 0 C0.33 0 0.66 0 1 0 C1.61714585 5.86288556 -0.34462726 10.85400392 -3 16 C-3.66 16.33 -4.32 16.66 -5 17 C-4.46246904 10.81839396 -2.45417612 5.673142 0 0 Z " transform="translate(488,535)" style="fill: #301217;"/><path d="M0 0 C0.66 0.33 1.32 0.66 2 1 C1.52949219 1.39832031 1.05898438 1.79664063 0.57421875 2.20703125 C-0.04839844 2.73683594 -0.67101562 3.26664062 -1.3125 3.8125 C-1.92738281 4.33457031 -2.54226563 4.85664063 -3.17578125 5.39453125 C-5.00117777 6.96146885 -5.00117777 6.96146885 -6.59375 8.625 C-8.23776839 10.23248464 -9.91302452 11.06445927 -12 12 C-10.56394807 8.61181498 -8.79533421 6.6813402 -6 4.3125 C-5.29875 3.71050781 -4.5975 3.10851562 -3.875 2.48828125 C-2 1 -2 1 0 0 Z " transform="translate(380,355)" style="fill: #8F98A2;"/><path d="M0 0 C-0.33 7.92 -0.66 15.84 -1 24 C-1.33 24 -1.66 24 -2 24 C-2.33 16.41 -2.66 8.82 -3 1 C-1 0 -1 0 0 0 Z " transform="translate(304,491)" style="fill: #738387;"/><path d="M0 0 C0.99 0.33 1.98 0.66 3 1 C2.67 1.66 2.34 2.32 2 3 C1.34 3 0.68 3 0 3 C-0.33 3.99 -0.66 4.98 -1 6 C-1.66 6 -2.32 6 -3 6 C-4.33783393 6.31478446 -5.67203709 6.64587656 -7 7 C-7 7.66 -7 8.32 -7 9 C-7.99 8.67 -8.98 8.34 -10 8 C-6.97731777 4.74480375 -3.85903564 2.21689281 0 0 Z " transform="translate(398,344)" style="fill: #747E8F;"/><path d="M0 0 C-0.639375 0.309375 -1.27875 0.61875 -1.9375 0.9375 C-3.93610821 1.8345163 -3.93610821 1.8345163 -5 3 C-7.01964199 3.07244053 -9.04167124 3.08377188 -11.0625 3.0625 C-12.16722656 3.05347656 -13.27195312 3.04445313 -14.41015625 3.03515625 C-15.69212891 3.01775391 -15.69212891 3.01775391 -17 3 C-12.64547174 -1.35452826 -5.77102003 -0.10085278 0 0 Z " transform="translate(485,313)" style="fill: #828999;"/><path d="M0 0 C0.99 0.66 1.98 1.32 3 2 C1.90081184 2.98475214 0.7954398 3.96260473 -0.3125 4.9375 C-0.92738281 5.48277344 -1.54226563 6.02804687 -2.17578125 6.58984375 C-4 8 -4 8 -7 9 C-6.82374165 6.62051228 -6.30280227 5.29774151 -4.59765625 3.62109375 C-3.09350908 2.37884514 -1.54870149 1.18623944 0 0 Z " transform="translate(643,678)" style="fill: #546072;"/><path d="M0 0 C0.66 0 1.32 0 2 0 C2.67155349 2.26949102 3.3373963 4.5403961 4 6.8125 C4.37125 8.07707031 4.7425 9.34164062 5.125 10.64453125 C6 14 6 14 6 17 C6.66 17.33 7.32 17.66 8 18 C7.01 18 6.02 18 5 18 C4.49663233 16.37604003 3.99741024 14.75079459 3.5 13.125 C3.2215625 12.22007812 2.943125 11.31515625 2.65625 10.3828125 C2 8 2 8 2 6 C1.34 6 0.68 6 0 6 C0 4.02 0 2.04 0 0 Z " transform="translate(437,549)" style="fill: #542025;"/><path d="M0 0 C-2.60271414 2.60271414 -4.65117616 3.8883424 -8.359375 4.1953125 C-9.54273438 4.16050781 -9.54273438 4.16050781 -10.75 4.125 C-11.54921875 4.10695313 -12.3484375 4.08890625 -13.171875 4.0703125 C-13.77515625 4.04710937 -14.3784375 4.02390625 -15 4 C-10.27844707 -0.02206361 -6.0476984 -0.14064415 0 0 Z " transform="translate(467,316)" style="fill: #898D9F;"/><path d="M0 0 C-1.44930671 3.59584747 -3.22752078 5.18832656 -6.4375 7.3125 C-7.21996094 7.84488281 -8.00242187 8.37726563 -8.80859375 8.92578125 C-11 10 -11 10 -14 9 C-11.62202997 6.37171734 -9.04670659 4.783438 -6 3 C-5.278125 2.443125 -4.55625 1.88625 -3.8125 1.3125 C-2 0 -2 0 0 0 Z " transform="translate(380,308)" style="fill: #606A82;"/><path d="M0 0 C0.33 0.99 0.66 1.98 1 3 C0.01 3.495 0.01 3.495 -1 4 C-1.12375 4.639375 -1.2475 5.27875 -1.375 5.9375 C-2 8 -2 8 -3.875 9.0625 C-4.57625 9.371875 -5.2775 9.68125 -6 10 C-7.70921589 11.5412312 -7.70921589 11.5412312 -9 13 C-8.51286902 8.58489226 -7.14946803 6.69553355 -3.9375 3.6875 C-3.20402344 2.99011719 -2.47054687 2.29273438 -1.71484375 1.57421875 C-1.14894531 1.05472656 -0.58304688 0.53523437 0 0 Z " transform="translate(695,687)" style="fill: #5C6870;"/><path d="M0 0 C0.33 0 0.66 0 1 0 C1.21278058 4.46839215 0.59138085 7.82262526 -1 12 C-1.66 12 -2.32 12 -3 12 C-3 12.99 -3 13.98 -3 15 C-3.99 14.67 -4.98 14.34 -6 14 C-5.73445313 13.49210938 -5.46890625 12.98421875 -5.1953125 12.4609375 C-3.10022511 8.37781098 -1.32380814 4.4126938 0 0 Z " transform="translate(468,522)" style="fill: #CB3F3F;"/><path d="M0 0 C2.31 0 4.62 0 7 0 C7.33 2.31 7.66 4.62 8 7 C5 3.25 5 3.25 5 1 C1.93600134 1.66970511 1.93600134 1.66970511 0.83203125 3.84765625 C0.49558594 4.57855469 0.15914063 5.30945313 -0.1875 6.0625 C-0.70376953 7.16271484 -0.70376953 7.16271484 -1.23046875 8.28515625 C-1.61138672 9.13400391 -1.61138672 9.13400391 -2 10 C-3.39195915 5.82412255 -1.82323219 3.86525224 0 0 Z " transform="translate(500,502)" style="fill: #CD4543;"/><path d="M0 0 C4.66469483 4.66469483 5.86330258 12.65091332 6.125 19.0625 C6.08375 19.701875 6.0425 20.34125 6 21 C4.0326586 17.46410262 2.97745912 13.82060602 1.875 9.9375 C1.52179688 8.70902344 1.16859375 7.48054688 0.8046875 6.21484375 C0 3 0 3 0 0 Z " transform="translate(415,464)" style="fill: #D54A46;"/><path d="M0 0 C3.12498063 -0.02895976 6.2499269 -0.04678483 9.375 -0.0625 C10.70917969 -0.07506836 10.70917969 -0.07506836 12.0703125 -0.08789062 C13.34648437 -0.09272461 13.34648437 -0.09272461 14.6484375 -0.09765625 C15.43395996 -0.10289307 16.21948242 -0.10812988 17.02880859 -0.11352539 C19 0 19 0 21 1 C20.67 1.99 20.34 2.98 20 4 C19.28070312 3.50886719 19.28070312 3.50886719 18.546875 3.0078125 C14.79520582 1.52325629 11.24319259 1.78891127 7.25 1.875 C6.06083984 1.88853516 6.06083984 1.88853516 4.84765625 1.90234375 C2.89830719 1.92582988 0.94911425 1.96169863 -1 2 C-0.67 1.34 -0.34 0.68 0 0 Z " transform="translate(495,459)" style="fill: #3B2926;"/><path d="M0 0 C1.43211146 3.8189639 1.3006473 8.1611198 0 12 C-2.05078125 13.74609375 -2.05078125 13.74609375 -4 15 C-2.07289294 4.44191344 -2.07289294 4.44191344 0 0 Z " transform="translate(575,433)" style="fill: #C84245;"/><path d="M0 0 C0.99 0.33 1.98 0.66 3 1 C0.87609042 2.48075386 -1.24906405 3.95966056 -3.375 5.4375 C-3.97828125 5.85837891 -4.5815625 6.27925781 -5.203125 6.71289062 C-9.7734375 9.88671875 -9.7734375 9.88671875 -12 11 C-12 8 -12 8 -10.7578125 6.4453125 C-8.87735552 4.89915898 -7.07661089 3.90675123 -4.875 2.875 C-2.24117764 1.71869993 -2.24117764 1.71869993 0 0 Z " transform="translate(398,340)" style="fill: #172D20;"/><path d="M0 0 C1 3 1 3 0.00390625 5.48046875 C-0.47175781 6.37378906 -0.94742187 7.26710938 -1.4375 8.1875 C-1.91058594 9.08855469 -2.38367188 9.98960937 -2.87109375 10.91796875 C-3.24363281 11.60503906 -3.61617188 12.29210937 -4 13 C-4.99 13 -5.98 13 -7 13 C-7 12.34 -7 11.68 -7 11 C-6.34 10.67 -5.68 10.34 -5 10 C-4.30959426 8.34302621 -3.6469365 6.6744239 -3 5 C-2.02763513 3.3170608 -1.03435556 1.64556566 0 0 Z " transform="translate(478,558)" style="fill: #C74447;"/><path d="M0 0 C0.66 0.33 1.32 0.66 2 1 C1.071875 1.8971875 1.071875 1.8971875 0.125 2.8125 C-2.13676954 5.00811144 -2.13676954 5.00811144 -4 8 C-6.125 8.6875 -6.125 8.6875 -8 9 C-7.505 8.401875 -7.01 7.80375 -6.5 7.1875 C-4.71723582 5.02970006 -4.71723582 5.02970006 -5 2 C-3 0 -3 0 0 0 Z " transform="translate(370,365)" style="fill: #74808D;"/><path d="M0 0 C-3.5087188 3.09592835 -6.49197399 4.74194623 -11 6 C-10.67 5.01 -10.34 4.02 -10 3 C-9.34 3 -8.68 3 -8 3 C-8 2.34 -8 1.68 -8 1 C-3.375 -1.125 -3.375 -1.125 0 0 Z " transform="translate(398,299)" style="fill: #626E83;"/><path d="M0 0 C1.65 0.33 3.3 0.66 5 1 C2.64531545 3.72647685 0.4591583 4.98756342 -3 6 C-5.3125 5.625 -5.3125 5.625 -7 5 C-6.67 4.34 -6.34 3.68 -6 3 C-4.33333333 2.66666667 -2.66666667 2.33333333 -1 2 C-0.67 1.34 -0.34 0.68 0 0 Z " transform="translate(407,291)" style="fill: #636E84;"/><path d="M0 0 C-1.44781793 3.44428265 -3.27694609 5.36130962 -6.125 7.75 C-7.21167969 8.67039062 -7.21167969 8.67039062 -8.3203125 9.609375 C-8.87460937 10.06828125 -9.42890625 10.5271875 -10 11 C-10.66 10.67 -11.32 10.34 -12 10 C-10.38113585 8.32737283 -8.7547271 6.66204463 -7.125 5 C-6.22007812 4.071875 -5.31515625 3.14375 -4.3828125 2.1875 C-2 0 -2 0 0 0 Z " transform="translate(652,657)" style="fill: #80898E;"/><path d="M0 0 C0.66 0 1.32 0 2 0 C0.33846988 5.85659906 -1.47041916 11.4590134 -4 17 C-4.33 17 -4.66 17 -5 17 C-5 15.02 -5 13.04 -5 11 C-4.34 11 -3.68 11 -3 11 C-2.01 7.37 -1.02 3.74 0 0 Z " transform="translate(495,513)" style="fill: #C3474C;"/><path d="M0 0 C0.66 0 1.32 0 2 0 C0.90301833 5.69139902 -0.54053077 10.74567937 -3 16 C-3.33 16 -3.66 16 -4 16 C-4.4238015 11.33818346 -2.90963085 8.20118786 -1 4 C-0.62691369 2.67723944 -0.26953585 1.34767923 0 0 Z " transform="translate(475,497)" style="fill: #391A1B;"/><path d="M0 0 C-1.28716647 1.00578589 -2.57988658 2.00446798 -3.875 3 C-4.95394531 3.8353125 -4.95394531 3.8353125 -6.0546875 4.6875 C-8 6 -8 6 -10 6 C-9.8125 3.625 -9.8125 3.625 -9 1 C-5.5905923 -1.02721539 -3.70505081 -1.09018552 0 0 Z " transform="translate(364,321)" style="fill: #627084;"/><path d="M0 0 C0.66 0.33 1.32 0.66 2 1 C1.27991594 5.60853797 -0.31295939 9.67237409 -2 14 C-3.05128687 10.76470168 -2.91901775 8.60277903 -2.125 5.3125 C-1.94195312 4.52488281 -1.75890625 3.73726563 -1.5703125 2.92578125 C-1 1 -1 1 0 0 Z " transform="translate(309,458)" style="fill: #7F8F95;"/><path d="M0 0 C1.1898617 3.56958511 0.71536834 5.03799411 -0.25 8.625 C-0.50265625 9.60726563 -0.7553125 10.58953125 -1.015625 11.6015625 C-1.34046875 12.39304687 -1.6653125 13.18453125 -2 14 C-2.99 14.33 -3.98 14.66 -5 15 C-5 14.01 -5 13.02 -5 12 C-4.34 12 -3.68 12 -3 12 C-3 9.69 -3 7.38 -3 5 C-2.34 5 -1.68 5 -1 5 C-0.67 3.35 -0.34 1.7 0 0 Z " transform="translate(598,438)" style="fill: #DC4849;"/><path d="M0 0 C-3.09902323 3.09902323 -5.39147385 2.9898579 -9.75 3.0625 C-10.8225 3.041875 -11.895 3.02125 -13 3 C-13.33 2.34 -13.66 1.68 -14 1 C-9.23692563 0.04738513 -4.8333472 -0.08333357 0 0 Z " transform="translate(467,314)" style="fill: #0F251D;"/><path d="M0 0 C1.98 0 3.96 0 6 0 C6 0.66 6 1.32 6 2 C2.5233662 4.14336161 -0.21229195 4.21277626 -4.25 4.125 C-5.32765625 4.10695313 -6.4053125 4.08890625 -7.515625 4.0703125 C-8.33546875 4.04710937 -9.1553125 4.02390625 -10 4 C-10 3.67 -10 3.34 -10 3 C-6.7 2.67 -3.4 2.34 0 2 C0 1.34 0 0.68 0 0 Z " transform="translate(515,713)" style="fill: #09171C;"/><path d="M0 0 C-0.33 1.65 -0.66 3.3 -1 5 C-3.31 5 -5.62 5 -8 5 C-8 4.34 -8 3.68 -8 3 C-5.09451118 0.95830515 -3.59857954 0 0 0 Z " transform="translate(649,729)" style="fill: #636A76;"/><path d="M0 0 C1.32 0.33 2.64 0.66 4 1 C2.73608512 2.00873016 1.46359117 3.00671822 0.1875 4 C-0.87404297 4.8353125 -0.87404297 4.8353125 -1.95703125 5.6875 C-4 7 -4 7 -7 7 C-7 6.34 -7 5.68 -7 5 C-6.01 5 -5.02 5 -4 5 C-4 4.34 -4 3.68 -4 3 C-3.01 2.67 -2.02 2.34 -1 2 C-0.67 1.34 -0.34 0.68 0 0 Z " transform="translate(657,718)" style="fill: #0A1917;"/><path d="M0 0 C3.49355371 3.02774655 4.90106142 5.51266745 6 10 C6.125 12.875 6.125 12.875 6 15 C4.33251253 12.49876879 3.10045639 10.22323643 1.875 7.5 C1.52179687 6.7265625 1.16859375 5.953125 0.8046875 5.15625 C0 3 0 3 0 0 Z " transform="translate(523,546)" style="fill: #D04141;"/><path d="M0 0 C3.3 0.33 6.6 0.66 10 1 C10 1.33 10 1.66 10 2 C7.03 2 4.06 2 1 2 C1 3.65 1 5.3 1 7 C0.34 6.34 -0.32 5.68 -1 5 C-0.625 2.375 -0.625 2.375 0 0 Z " transform="translate(404,421)" style="fill: #C04D4E;"/><path d="M0 0 C0.99 0.33 1.98 0.66 3 1 C3 1.99 3 2.98 3 4 C0.75 5.5 0.75 5.5 -2 7 C-3.34631825 7.98244845 -4.68441297 8.97676564 -6 10 C-6.66 9.67 -7.32 9.34 -8 9 C-7.50628906 8.60167969 -7.01257813 8.20335937 -6.50390625 7.79296875 C-5.86324219 7.26316406 -5.22257812 6.73335938 -4.5625 6.1875 C-3.92441406 5.66542969 -3.28632813 5.14335937 -2.62890625 4.60546875 C-0.7451725 2.99165589 -0.7451725 2.99165589 0 0 Z " transform="translate(382,353)" style="fill: #798393;"/><path d="M0 0 C1.32 0.33 2.64 0.66 4 1 C3.67 1.33 3.34 1.66 3 2 C3.99 2.33 4.98 2.66 6 3 C6 3.66 6 4.32 6 5 C6.99 5 7.98 5 9 5 C8.67 6.32 8.34 7.64 8 9 C6.66079162 7.88200014 5.32877444 6.75538103 4 5.625 C2.88625 4.68527344 2.88625 4.68527344 1.75 3.7265625 C1.1725 3.15679687 0.595 2.58703125 0 2 C0 1.34 0 0.68 0 0 Z " transform="translate(624,345)" style="fill: #16231E;"/><path d="M0 0 C-0.33 0.99 -0.66 1.98 -1 3 C-2.99609375 3.984375 -2.99609375 3.984375 -5.4375 4.75 C-6.24058594 5.01296875 -7.04367187 5.2759375 -7.87109375 5.546875 C-10 6 -10 6 -12 5 C-10.56705502 4.15885829 -9.12845595 3.32734313 -7.6875 2.5 C-6.88699219 2.0359375 -6.08648437 1.571875 -5.26171875 1.09375 C-3 0 -3 0 0 0 Z " transform="translate(417,333)" style="fill: #868A93;"/><path d="M0 0 C0.99 0.33 1.98 0.66 3 1 C2.3125 2.9375 2.3125 2.9375 1 5 C-1.625 5.75 -1.625 5.75 -4 6 C-2.84826645 3.53199953 -1.95216435 1.95216435 0 0 Z " transform="translate(634,667)" style="fill: #0F1D1B;"/><path d="M0 0 C0.66 0.66 1.32 1.32 2 2 C-1.625 6.875 -1.625 6.875 -5 8 C-3.62845496 5.04590299 -2.01136276 2.55991624 0 0 Z M-6 8 C-6 8.99 -6 9.98 -6 11 C-6.99 11.495 -6.99 11.495 -8 12 C-7.34 10.68 -6.68 9.36 -6 8 Z " transform="translate(713,665)" style="fill: #616E75;"/><path d="M0 0 C1 3 1 3 0.07421875 5.04296875 C-0.61220703 6.10451172 -0.61220703 6.10451172 -1.3125 7.1875 C-1.76238281 7.90292969 -2.21226562 8.61835937 -2.67578125 9.35546875 C-3.11277344 9.89816406 -3.54976562 10.44085937 -4 11 C-4.66 11 -5.32 11 -6 11 C-4.74194623 6.49197399 -3.09592835 3.5087188 0 0 Z " transform="translate(676,621)" style="fill: #0F1A1C;"/><path d="M0 0 C2.30153291 2.30153291 2.7577028 3.84875905 3.6875 6.9375 C3.95949219 7.81277344 4.23148438 8.68804687 4.51171875 9.58984375 C5 12 5 12 4 15 C1.54510684 9.87674471 0.49658297 5.66104589 0 0 Z " transform="translate(518,470)" style="fill: #C24646;"/><path d="M0 0 C0 0.66 0 1.32 0 2 C-0.66 2 -1.32 2 -2 2 C-2.33 3.32 -2.66 4.64 -3 6 C-4.65 6 -6.3 6 -8 6 C-6.72879117 2.18637351 -4.19078006 0 0 0 Z " transform="translate(584,427)" style="fill: #CF4645;"/><path d="M0 0 C0.8125 1.6875 0.8125 1.6875 1 4 C-1.1613627 6.51185394 -3.01962439 8.50981219 -6 10 C-5.49477778 5.62140745 -2.82172778 3.18348776 0 0 Z " transform="translate(345,389)" style="fill: #829098;"/><path d="M0 0 C5.75 0.75 5.75 0.75 8 3 C7.21625 3.103125 6.4325 3.20625 5.625 3.3125 C2.66954819 3.77595022 2.66954819 3.77595022 1 7 C0.67 4.69 0.34 2.38 0 0 Z " transform="translate(569,321)" style="fill: #878C9C;"/><path d="M0 0 C-1.32 0.33 -2.64 0.66 -4 1 C-4 1.66 -4 2.32 -4 3 C-4.66 3 -5.32 3 -6 3 C-6 3.66 -6 4.32 -6 5 C-7.65 4.67 -9.3 4.34 -11 4 C-3.77464789 -1.88732394 -3.77464789 -1.88732394 0 0 Z " transform="translate(599,755)" style="fill: #59626B;"/><path d="M0 0 C0.33 0 0.66 0 1 0 C0.64989059 8.35010941 0.64989059 8.35010941 -2.0625 11.0625 C-2.701875 11.371875 -3.34125 11.68125 -4 12 C-2.66666667 8 -1.33333333 4 0 0 Z " transform="translate(493,523)" style="fill: #35131B;"/><path d="M0 0 C1.38076179 3.83544942 0.85712183 7.07152497 0 11 C-1.5625 12.9375 -1.5625 12.9375 -3 14 C-2.48594831 9.03083364 -1.76615118 4.70973649 0 0 Z " transform="translate(580,506)" style="fill: #3D111A;"/><path d="M0 0 C1.32 0.33 2.64 0.66 4 1 C0 5 0 5 -3 5 C-3 6.65 -3 8.3 -3 10 C-3.33 10 -3.66 10 -4 10 C-4 8.02 -4 6.04 -4 4 C-3.01 3.67 -2.02 3.34 -1 3 C-0.67 2.01 -0.34 1.02 0 0 Z " transform="translate(492,464)" style="fill: #EA4848;"/><path d="M0 0 C5.75 1.625 5.75 1.625 8 5 C5 6 5 6 2 5 C0.8125 2.4375 0.8125 2.4375 0 0 Z " transform="translate(387,737)" style="fill: #5F6871;"/><path d="M0 0 C-1.38877354 3.35620271 -2.91677965 5.07298728 -6 7 C-6.66 7 -7.32 7 -8 7 C-7.8125 5.1875 -7.8125 5.1875 -7 3 C-2.82142857 0 -2.82142857 0 0 0 Z " transform="translate(670,710)" style="fill: #0A1C17;"/><path d="M0 0 C0.33 0 0.66 0 1 0 C1 3.3 1 6.6 1 10 C0.01 10 -0.98 10 -2 10 C-1.54177532 6.53058454 -1.10868317 3.32604951 0 0 Z " transform="translate(554,504)" style="fill: #C63D40;"/><path d="M0 0 C-0.33 0.66 -0.66 1.32 -1 2 C-3.06640625 2.6328125 -3.06640625 2.6328125 -5.5625 3.125 C-6.80193359 3.37636719 -6.80193359 3.37636719 -8.06640625 3.6328125 C-8.70449219 3.75398438 -9.34257812 3.87515625 -10 4 C-10 3.34 -10 2.68 -10 2 C-6.3558226 -0.4294516 -4.28758728 -0.16179575 0 0 Z " transform="translate(452,278)" style="fill: #657183;"/><path d="M0 0 C4.75 0.875 4.75 0.875 7 2 C7 2.99 7 3.98 7 5 C4.625 4.75 4.625 4.75 2 4 C0.6875 1.9375 0.6875 1.9375 0 0 Z " transform="translate(419,753)" style="fill: #616875;"/><path d="M0 0 C1.32 0.33 2.64 0.66 4 1 C0.535 3.97 0.535 3.97 -3 7 C-2.25 2.25 -2.25 2.25 0 0 Z " transform="translate(652,670)" style="fill: #546171;"/><path d="M0 0 C1.79068573 2.6860286 2.66055791 4.6626589 3.625 7.6875 C3.88539063 8.49574219 4.14578125 9.30398438 4.4140625 10.13671875 C4.60742188 10.75160156 4.80078125 11.36648438 5 12 C2 11 2 11 0.8125 8.8125 C-0.07334979 5.74609689 -0.14770318 3.17561845 0 0 Z " transform="translate(511,518)" style="fill: #491319;"/><path d="M0 0 C2.34914492 2.34914492 2.73140357 3.95679446 3.625 7.125 C3.88539063 8.03507812 4.14578125 8.94515625 4.4140625 9.8828125 C4.60742188 10.58148438 4.80078125 11.28015625 5 12 C4.01 12 3.02 12 2 12 C0.86235649 7.73383684 0 4.43513689 0 0 Z " transform="translate(529,499)" style="fill: #B83C3C;"/><path d="M0 0 C2.31 0 4.62 0 7 0 C7 0.99 7 1.98 7 3 C5.02 3 3.04 3 1 3 C0.67 2.01 0.34 1.02 0 0 Z " transform="translate(473,711)" style="fill: #10241C;"/><path d="M0 0 C0.75 1.6875 0.75 1.6875 1 4 C-0.625 6.75 -0.625 6.75 -3 9 C-5.75 9.3125 -5.75 9.3125 -8 9 C-6.8553125 8.1646875 -6.8553125 8.1646875 -5.6875 7.3125 C-3.03859112 5.03320631 -1.61711178 3.06400128 0 0 Z " transform="translate(564,561)" style="fill: #371312;"/><path d="M0 0 C0.66 0.33 1.32 0.66 2 1 C0.90716423 2.03295436 -0.19970579 3.05107835 -1.3125 4.0625 C-1.92738281 4.63097656 -2.54226563 5.19945312 -3.17578125 5.78515625 C-3.77777344 6.18605469 -4.37976563 6.58695312 -5 7 C-5.99 6.67 -6.98 6.34 -8 6 C-5.36 4.02 -2.72 2.04 0 0 Z " transform="translate(391,347)" style="fill: #939CA6;"/><path d="M0 0 C0 0.66 0 1.32 0 2 C-4.17737474 3.59138085 -7.53160785 4.21278058 -12 4 C-8.30376141 2.00971768 -4.25699221 0 0 0 Z " transform="translate(580,759)" style="fill: #0B1D17;"/><path d="M0 0 C2.475 0.495 2.475 0.495 5 1 C5 2.32 5 3.64 5 5 C3.0625 4.1875 3.0625 4.1875 1 3 C0.67 2.01 0.34 1.02 0 0 Z " transform="translate(403,746)" style="fill: #636773;"/><path d="M0 0 C1.02196992 0.97753644 2.01979625 1.9805881 3 3 C3.99 3.66 4.98 4.32 6 5 C-0.52307692 4.38461538 -0.52307692 4.38461538 -2.9375 2.4375 C-3.288125 1.963125 -3.63875 1.48875 -4 1 C-2 0 -2 0 0 0 Z " transform="translate(411,745)" style="fill: #10201C;"/><path d="M0 0 C0 3 0 3 -1.6875 5.125 C-4.20933322 7.16972964 -5.81390075 7.64598897 -9 8 C-6.17493137 5.0702992 -3.21203935 2.49825283 0 0 Z " transform="translate(665,715)" style="fill: #596666;"/><path d="M0 0 C0.33 0.66 0.66 1.32 1 2 C4.02934491 2.65772428 4.02934491 2.65772428 7 3 C6.01 3.66 5.02 4.32 4 5 C3.67 5.99 3.34 6.98 3 8 C0 3.375 0 3.375 0 0 Z " transform="translate(444,567)" style="fill: #16141B;"/><path d="M0 0 C0.33 0 0.66 0 1 0 C0.48041715 4.37934119 -0.05675742 8.68803391 -1 13 C-1.33 13 -1.66 13 -2 13 C-2.05447047 11.58376784 -2.09300508 10.16691809 -2.125 8.75 C-2.14820313 7.96109375 -2.17140625 7.1721875 -2.1953125 6.359375 C-1.9828378 3.79268059 -1.28654105 2.2083933 0 0 Z " transform="translate(549,517)" style="fill: #3F131C;"/><path d="M0 0 C0.66 0 1.32 0 2 0 C0.25 7.75 0.25 7.75 -2 10 C-2.17942163 6.05272412 -2.09350689 3.4019487 0 0 Z " transform="translate(469,514)" style="fill: #3A161E;"/><path d="M0 0 C4.455 0.99 4.455 0.99 9 2 C5 4 5 4 2 4 C1.34 2.68 0.68 1.36 0 0 Z " transform="translate(450,763)" style="fill: #616A73;"/><path d="M0 0 C4.455 0.99 4.455 0.99 9 2 C9 2.33 9 2.66 9 3 C6.03 3 3.06 3 0 3 C0 2.01 0 1.02 0 0 Z " transform="translate(429,757)" style="fill: #646A79;"/><path d="M0 0 C2.97 0.99 5.94 1.98 9 3 C9 3.66 9 4.32 9 5 C5.26512223 4.5020163 3.18762365 4.12508244 0 2 C0 1.34 0 0.68 0 0 Z " transform="translate(421,751)" style="fill: #10221D;"/><path d="M0 0 C1.65 0.33 3.3 0.66 5 1 C4.67 1.99 4.34 2.98 4 4 C4.99 4.33 5.98 4.66 7 5 C6.01 5.495 6.01 5.495 5 6 C3.02 4.68 1.04 3.36 -1 2 C-0.67 1.34 -0.34 0.68 0 0 Z " transform="translate(383,731)" style="fill: #0F1E1B;"/><path d="M0 0 C0.66 0 1.32 0 2 0 C2.33 2.64 2.66 5.28 3 8 C2.01 7.67 1.02 7.34 0 7 C0 4.69 0 2.38 0 0 Z " transform="translate(457,524)" style="fill: #CF4343;"/><path d="M0 0 C-0.28127421 1.48117801 -0.57533732 2.95993249 -0.875 4.4375 C-1.03742187 5.26121094 -1.19984375 6.08492188 -1.3671875 6.93359375 C-1.57601562 7.61550781 -1.78484375 8.29742187 -2 9 C-2.99 9.495 -2.99 9.495 -4 10 C-3.85950482 8.52031676 -3.71245174 7.04125484 -3.5625 5.5625 C-3.48128906 4.73878906 -3.40007813 3.91507812 -3.31640625 3.06640625 C-2.9001499 0.34789259 -2.77639501 0 0 0 Z " transform="translate(559,497)" style="fill: #D94446;"/><path d="M0 0 C2.76223278 2.76223278 2.57856291 5.20706617 3 9 C2.01 8.67 1.02 8.34 0 8 C0 5.36 0 2.72 0 0 Z " transform="translate(449,494)" style="fill: #C04242;"/><path d="M0 0 C-3.3 1.32 -6.6 2.64 -10 4 C-10.33 3.34 -10.66 2.68 -11 2 C-9.73392393 1.46770674 -8.46189588 0.94955456 -7.1875 0.4375 C-6.47980469 0.14746094 -5.77210938 -0.14257812 -5.04296875 -0.44140625 C-3 -1 -3 -1 0 0 Z " transform="translate(446,324)" style="fill: #757B8F;"/><path d="M0 0 C2.46800047 1.15173355 4.04783565 2.04783565 6 4 C5.67 4.99 5.34 5.98 5 7 C4.34 6.01 3.68 5.02 3 4 C2.01 4 1.02 4 0 4 C-0.33 3.01 -0.66 2.02 -1 1 C-0.67 0.67 -0.34 0.34 0 0 Z " transform="translate(354,713)" style="fill: #5F6B70;"/><path d="M0 0 C1.32 0 2.64 0 4 0 C3.1875 1.9375 3.1875 1.9375 2 4 C1.01 4.33 0.02 4.66 -1 5 C-1 2 -1 2 0 0 Z " transform="translate(610,700)" style="fill: #586377;"/><path d="M0 0 C-0.33 1.65 -0.66 3.3 -1 5 C-2.65 3.35 -4.3 1.7 -6 0 C-2.25 -1.125 -2.25 -1.125 0 0 Z " transform="translate(348,700)" style="fill: #0F191D;"/><path d="M0 0 C-0.66 1.32 -1.32 2.64 -2 4 C-3.32 4 -4.64 4 -6 4 C-4.38012568 0.76025137 -3.70423351 0 0 0 Z " transform="translate(324,604)" style="fill: #596573;"/><path d="M0 0 C2.6855594 2.6855594 3.06049974 5.37621328 4 9 C3.01 8.67 2.02 8.34 1 8 C0.67 5.36 0.34 2.72 0 0 Z " transform="translate(518,536)" style="fill: #4D1617;"/><path d="M0 0 C0.33 0 0.66 0 1 0 C1.36923077 6.52307692 1.36923077 6.52307692 -0.5 8.9375 C-0.995 9.288125 -1.49 9.63875 -2 10 C-1.125 2.25 -1.125 2.25 0 0 Z " transform="translate(566,464)" style="fill: #CB4546;"/><path d="M0 0 C0.6875 1.8125 0.6875 1.8125 1 4 C-0.3125 5.75 -0.3125 5.75 -2 7 C-2.66 7 -3.32 7 -4 7 C-4.33 6.01 -4.66 5.02 -5 4 C-4.34 3.34 -3.68 2.68 -3 2 C-2.67 2.33 -2.34 2.66 -2 3 C-1.34 2.01 -0.68 1.02 0 0 Z " transform="translate(342,395)" style="fill: #73818B;"/></svg>